<?xml version="1.0" encoding="UTF-8"?>
<!--Generator: Apple Native CoreSVG 175.5-->
<!DOCTYPE svg
PUBLIC "-//W3C//DTD SVG 1.1//EN"
       "http://www.w3.org/Graphics/SVG/1.1/DTD/svg11.dtd">
<svg version="1.1" xmlns="http://www.w3.org/2000/svg" xmlns:xlink="http://www.w3.org/1999/xlink" width="3300" height="2200">
 <!--glyph: "uni10017D.medium", point size: 100.0, font version: "18.0d12e2", template writer version: "101"-->
 <g id="Notes">
  <rect height="2200" id="artboard" style="fill:white;opacity:1" width="3300" x="0" y="0"/>
  <line style="fill:none;stroke:black;opacity:1;stroke-width:0.5;" x1="263" x2="3036" y1="292" y2="292"/>
  <text style="stroke:none;fill:black;font-family:sans-serif;font-size:13;font-weight:bold;" transform="matrix(1 0 0 1 263 322)">Weight/Scale Variations</text>
  <text style="stroke:none;fill:black;font-family:sans-serif;font-size:13;text-anchor:middle;" transform="matrix(1 0 0 1 559.711 322)">Ultralight</text>
  <text style="stroke:none;fill:black;font-family:sans-serif;font-size:13;text-anchor:middle;" transform="matrix(1 0 0 1 856.422 322)">Thin</text>
  <text style="stroke:none;fill:black;font-family:sans-serif;font-size:13;text-anchor:middle;" transform="matrix(1 0 0 1 1153.13 322)">Light</text>
  <text style="stroke:none;fill:black;font-family:sans-serif;font-size:13;text-anchor:middle;" transform="matrix(1 0 0 1 1449.84 322)">Regular</text>
  <text style="stroke:none;fill:black;font-family:sans-serif;font-size:13;text-anchor:middle;" transform="matrix(1 0 0 1 1746.56 322)">Medium</text>
  <text style="stroke:none;fill:black;font-family:sans-serif;font-size:13;text-anchor:middle;" transform="matrix(1 0 0 1 2043.27 322)">Semibold</text>
  <text style="stroke:none;fill:black;font-family:sans-serif;font-size:13;text-anchor:middle;" transform="matrix(1 0 0 1 2339.98 322)">Bold</text>
  <text style="stroke:none;fill:black;font-family:sans-serif;font-size:13;text-anchor:middle;" transform="matrix(1 0 0 1 2636.69 322)">Heavy</text>
  <text style="stroke:none;fill:black;font-family:sans-serif;font-size:13;text-anchor:middle;" transform="matrix(1 0 0 1 2933.4 322)">Black</text>
  <line style="fill:none;stroke:black;opacity:1;stroke-width:0.5;" x1="263" x2="3036" y1="1903" y2="1903"/>
  <g transform="matrix(1 0 0 1 263 1933)">
   <path d="M9.24805 0.830078C13.5547 0.830078 17.1387-2.74414 17.1387-7.05078C17.1387-11.3574 13.5449-14.9316 9.23828-14.9316C4.94141-14.9316 1.36719-11.3574 1.36719-7.05078C1.36719-2.74414 4.95117 0.830078 9.24805 0.830078ZM9.24805-0.654297C5.70312-0.654297 2.87109-3.49609 2.87109-7.05078C2.87109-10.6055 5.69336-13.4473 9.23828-13.4473C12.793-13.4473 15.6445-10.6055 15.6445-7.05078C15.6445-3.49609 12.8027-0.654297 9.24805-0.654297ZM5.6543-7.05078C5.6543-6.62109 5.95703-6.32812 6.40625-6.32812L8.50586-6.32812L8.50586-4.20898C8.50586-3.76953 8.79883-3.4668 9.22852-3.4668C9.67773-3.4668 9.9707-3.76953 9.9707-4.20898L9.9707-6.32812L12.0898-6.32812C12.5293-6.32812 12.832-6.62109 12.832-7.05078C12.832-7.49023 12.5293-7.79297 12.0898-7.79297L9.9707-7.79297L9.9707-9.90234C9.9707-10.3516 9.67773-10.6543 9.22852-10.6543C8.79883-10.6543 8.50586-10.3516 8.50586-9.90234L8.50586-7.79297L6.40625-7.79297C5.95703-7.79297 5.6543-7.49023 5.6543-7.05078Z"/>
  </g>
  <g transform="matrix(1 0 0 1 281.867 1933)">
   <path d="M11.709 2.91016C17.1582 2.91016 21.6699-1.61133 21.6699-7.05078C21.6699-12.5 17.1484-17.0117 11.6992-17.0117C6.25977-17.0117 1.74805-12.5 1.74805-7.05078C1.74805-1.61133 6.26953 2.91016 11.709 2.91016ZM11.709 1.25C7.09961 1.25 3.41797-2.44141 3.41797-7.05078C3.41797-11.6602 7.08984-15.3516 11.6992-15.3516C16.3086-15.3516 20.0098-11.6602 20.0098-7.05078C20.0098-2.44141 16.3184 1.25 11.709 1.25ZM7.17773-7.05078C7.17773-6.57227 7.50977-6.25 8.00781-6.25L10.8789-6.25L10.8789-3.36914C10.8789-2.88086 11.2109-2.53906 11.6895-2.53906C12.1777-2.53906 12.5195-2.87109 12.5195-3.36914L12.5195-6.25L15.4004-6.25C15.8887-6.25 16.2305-6.57227 16.2305-7.05078C16.2305-7.53906 15.8887-7.88086 15.4004-7.88086L12.5195-7.88086L12.5195-10.752C12.5195-11.25 12.1777-11.5918 11.6895-11.5918C11.2109-11.5918 10.8789-11.25 10.8789-10.752L10.8789-7.88086L8.00781-7.88086C7.50977-7.88086 7.17773-7.53906 7.17773-7.05078Z"/>
  </g>
  <g transform="matrix(1 0 0 1 305.646 1933)">
   <path d="M14.9707 5.66406C21.9336 5.66406 27.6953-0.0976562 27.6953-7.05078C27.6953-14.0137 21.9238-19.7754 14.9609-19.7754C8.00781-19.7754 2.25586-14.0137 2.25586-7.05078C2.25586-0.0976562 8.01758 5.66406 14.9707 5.66406ZM14.9707 3.84766C8.93555 3.84766 4.08203-1.01562 4.08203-7.05078C4.08203-13.0957 8.92578-17.9492 14.9609-17.9492C21.0059-17.9492 25.8691-13.0957 25.8691-7.05078C25.8691-1.01562 21.0156 3.84766 14.9707 3.84766ZM9.19922-7.05078C9.19922-6.5332 9.57031-6.17188 10.1172-6.17188L14.0625-6.17188L14.0625-2.2168C14.0625-1.67969 14.4336-1.29883 14.9512-1.29883C15.4883-1.29883 15.8594-1.66992 15.8594-2.2168L15.8594-6.17188L19.8145-6.17188C20.3516-6.17188 20.7324-6.5332 20.7324-7.05078C20.7324-7.59766 20.3613-7.96875 19.8145-7.96875L15.8594-7.96875L15.8594-11.9141C15.8594-12.4609 15.4883-12.8418 14.9512-12.8418C14.4336-12.8418 14.0625-12.4609 14.0625-11.9141L14.0625-7.96875L10.1172-7.96875C9.57031-7.96875 9.19922-7.59766 9.19922-7.05078Z"/>
  </g>
  <text style="stroke:none;fill:black;font-family:sans-serif;font-size:13;font-weight:bold;" transform="matrix(1 0 0 1 263 1953)">Design Variations</text>
  <text style="stroke:none;fill:black;font-family:sans-serif;font-size:13;" transform="matrix(1 0 0 1 263 1971)">Symbols are supported in up to nine weights and three scales.</text>
  <text style="stroke:none;fill:black;font-family:sans-serif;font-size:13;" transform="matrix(1 0 0 1 263 1989)">For optimal layout with text and other symbols, vertically align</text>
  <text style="stroke:none;fill:black;font-family:sans-serif;font-size:13;" transform="matrix(1 0 0 1 263 2007)">symbols with the adjacent text.</text>
  <line style="fill:none;stroke:#00AEEF;stroke-width:0.5;opacity:1.0;" x1="776" x2="776" y1="1919" y2="1933"/>
  <g transform="matrix(1 0 0 1 776 1933)">
   <path d="M3.31055 0.15625C3.82812 0.15625 4.08203-0.0390625 4.26758-0.585938L5.52734-4.0332L11.2891-4.0332L12.5488-0.585938C12.7344-0.0390625 12.9883 0.15625 13.4961 0.15625C14.0137 0.15625 14.3457-0.15625 14.3457-0.644531C14.3457-0.810547 14.3164-0.966797 14.2383-1.17188L9.6582-13.3691C9.43359-13.9648 9.0332-14.2676 8.4082-14.2676C7.80273-14.2676 7.39258-13.9746 7.17773-13.3789L2.59766-1.16211C2.51953-0.957031 2.49023-0.800781 2.49023-0.634766C2.49023-0.146484 2.80273 0.15625 3.31055 0.15625ZM6.00586-5.51758L8.37891-12.0898L8.42773-12.0898L10.8008-5.51758Z"/>
  </g>
  <line style="fill:none;stroke:#00AEEF;stroke-width:0.5;opacity:1.0;" x1="793.197" x2="793.197" y1="1919" y2="1933"/>
  <text style="stroke:none;fill:black;font-family:sans-serif;font-size:13;font-weight:bold;" transform="matrix(1 0 0 1 776 1953)">Margins</text>
  <text style="stroke:none;fill:black;font-family:sans-serif;font-size:13;" transform="matrix(1 0 0 1 776 1971)">Leading and trailing margins on the left and right side of each symbol</text>
  <text style="stroke:none;fill:black;font-family:sans-serif;font-size:13;" transform="matrix(1 0 0 1 776 1989)">can be adjusted by modifying the x-location of the margin guidelines.</text>
  <text style="stroke:none;fill:black;font-family:sans-serif;font-size:13;" transform="matrix(1 0 0 1 776 2007)">Modifications are automatically applied proportionally to all</text>
  <text style="stroke:none;fill:black;font-family:sans-serif;font-size:13;" transform="matrix(1 0 0 1 776 2025)">scales and weights.</text>
  <g transform="matrix(1 0 0 1 1289 1933)">
   <path d="M2.8418 1.86523L4.54102 3.57422C5.40039 4.44336 6.38672 4.38477 7.31445 3.35938L18.0078-8.42773L17.041-9.4043L6.42578 2.27539C6.07422 2.67578 5.74219 2.77344 5.27344 2.30469L4.10156 1.14258C3.63281 0.683594 3.74023 0.341797 4.14062-0.0195312L15.6152-10.8203L14.6387-11.7871L3.04688-0.898438C2.06055 0.0195312 1.98242 0.996094 2.8418 1.86523ZM9.25781-16.3281C8.83789-15.918 8.80859-15.3418 9.04297-14.9512C9.27734-14.5898 9.73633-14.3555 10.3809-14.5215C11.8457-14.8633 13.3691-14.9219 14.7949-13.9844L14.209-12.5293C13.8672-11.6992 14.043-11.1133 14.5801-10.5664L16.875-8.25195C17.3633-7.76367 17.7734-7.74414 18.3398-7.8418L19.4043-8.03711L20.0684-7.36328L20.0293-6.80664C19.9902-6.30859 20.1172-5.92773 20.6055-5.44922L21.3672-4.70703C21.8457-4.22852 22.4609-4.19922 22.9297-4.66797L25.8398-7.58789C26.3086-8.05664 26.2891-8.65234 25.8105-9.13086L25.0391-9.89258C24.5605-10.3711 24.1895-10.5273 23.7109-10.4883L23.1348-10.4395L22.4902-11.0742L22.7344-12.1973C22.8613-12.7637 22.7051-13.2031 22.1191-13.7891L19.9219-15.9766C16.582-19.2969 12.1484-19.2188 9.25781-16.3281ZM10.752-15.957C13.1836-17.7344 16.4746-17.4316 18.7012-15.2051L21.1328-12.793C21.3672-12.5586 21.4062-12.373 21.3379-12.0312L21.0156-10.5469L22.5195-9.0625L23.5059-9.12109C23.7598-9.13086 23.8379-9.11133 24.0332-8.91602L24.6094-8.33984L22.168-5.89844L21.5918-6.47461C21.3965-6.66992 21.3672-6.74805 21.377-7.01172L21.4453-7.98828L19.9512-9.47266L18.4277-9.21875C18.1055-9.15039 17.959-9.17969 17.7148-9.41406L15.7129-11.416C15.459-11.6504 15.4297-11.8164 15.5859-12.1875L16.4648-14.2773C14.9023-15.7324 12.8711-16.3574 10.8398-15.7617C10.6836-15.7227 10.625-15.8496 10.752-15.957Z"/>
  </g>
  <text style="stroke:none;fill:black;font-family:sans-serif;font-size:13;font-weight:bold;" transform="matrix(1 0 0 1 1289 1953)">Exporting</text>
  <text style="stroke:none;fill:black;font-family:sans-serif;font-size:13;" transform="matrix(1 0 0 1 1289 1971)">Symbols should be outlined when exporting to ensure the</text>
  <text style="stroke:none;fill:black;font-family:sans-serif;font-size:13;" transform="matrix(1 0 0 1 1289 1989)">design is preserved when submitting to Xcode.</text>
  <text id="template-version" style="stroke:none;fill:black;font-family:sans-serif;font-size:13;text-anchor:end;" transform="matrix(1 0 0 1 3036 1933)">Template v.2.0</text>
  <text style="stroke:none;fill:black;font-family:sans-serif;font-size:13;text-anchor:end;" transform="matrix(1 0 0 1 3036 1951)">Requires Xcode 12 or greater</text>
  <text id="descriptive-name" style="stroke:none;fill:black;font-family:sans-serif;font-size:13;text-anchor:end;" transform="matrix(1 0 0 1 3036 1969)">Generated from minus</text>
  <text style="stroke:none;fill:black;font-family:sans-serif;font-size:13;text-anchor:end;" transform="matrix(1 0 0 1 3036 1987)">Typeset at 100 points</text>
  <text style="stroke:none;fill:black;font-family:sans-serif;font-size:13;" transform="matrix(1 0 0 1 263 726)">Small</text>
  <text style="stroke:none;fill:black;font-family:sans-serif;font-size:13;" transform="matrix(1 0 0 1 263 1156)">Medium</text>
  <text style="stroke:none;fill:black;font-family:sans-serif;font-size:13;" transform="matrix(1 0 0 1 263 1586)">Large</text>
 </g>
 <g id="Guides">
  <g id="H-reference" style="fill:#27AAE1;stroke:none;" transform="matrix(1 0 0 1 339 696)">
   <path d="M0.993654 0L3.63775 0L29.3281-67.1323L30.0303-67.1323L30.0303-70.459L28.1226-70.459ZM11.6885-24.4799L46.9815-24.4799L46.2315-26.7285L12.4385-26.7285ZM55.1196 0L57.7637 0L30.6382-70.459L29.4326-70.459L29.4326-67.1323Z"/>
  </g>
  <line id="Baseline-S" style="fill:none;stroke:#27AAE1;opacity:1;stroke-width:0.5;" x1="263" x2="3036" y1="696" y2="696"/>
  <line id="Capline-S" style="fill:none;stroke:#27AAE1;opacity:1;stroke-width:0.5;" x1="263" x2="3036" y1="625.541" y2="625.541"/>
  <g id="H-reference" style="fill:#27AAE1;stroke:none;" transform="matrix(1 0 0 1 339 1126)">
   <path d="M0.993654 0L3.63775 0L29.3281-67.1323L30.0303-67.1323L30.0303-70.459L28.1226-70.459ZM11.6885-24.4799L46.9815-24.4799L46.2315-26.7285L12.4385-26.7285ZM55.1196 0L57.7637 0L30.6382-70.459L29.4326-70.459L29.4326-67.1323Z"/>
  </g>
  <line id="Baseline-M" style="fill:none;stroke:#27AAE1;opacity:1;stroke-width:0.5;" x1="263" x2="3036" y1="1126" y2="1126"/>
  <line id="Capline-M" style="fill:none;stroke:#27AAE1;opacity:1;stroke-width:0.5;" x1="263" x2="3036" y1="1055.54" y2="1055.54"/>
  <g id="H-reference" style="fill:#27AAE1;stroke:none;" transform="matrix(1 0 0 1 339 1556)">
   <path d="M0.993654 0L3.63775 0L29.3281-67.1323L30.0303-67.1323L30.0303-70.459L28.1226-70.459ZM11.6885-24.4799L46.9815-24.4799L46.2315-26.7285L12.4385-26.7285ZM55.1196 0L57.7637 0L30.6382-70.459L29.4326-70.459L29.4326-67.1323Z"/>
  </g>
  <line id="Baseline-L" style="fill:none;stroke:#27AAE1;opacity:1;stroke-width:0.5;" x1="263" x2="3036" y1="1556" y2="1556"/>
  <line id="Capline-L" style="fill:none;stroke:#27AAE1;opacity:1;stroke-width:0.5;" x1="263" x2="3036" y1="1485.54" y2="1485.54"/>
  <line id="left-margin" style="fill:none;stroke:#00AEEF;stroke-width:0.5;opacity:1.0;" x1="1397.12" x2="1397.12" y1="1030.79" y2="1150.12"/>
  <line id="right-margin" style="fill:none;stroke:#00AEEF;stroke-width:0.5;opacity:1.0;" x1="1502.57" x2="1502.57" y1="1030.79" y2="1150.12"/>
 </g>
 <g id="Symbols">
  <g id="Black-L" transform="matrix(1 0 0 1 2862.21 1556)">
   <path d="M27.7804-23.258L114.614-23.258C120.837-23.258 126.289-28.7116 126.289-35.1881C126.289-41.6646 120.837-47.1181 114.614-47.1181L27.7804-47.1181C21.8283-47.1181 16.084-41.6646 16.084-35.1881C16.084-28.7116 21.8283-23.258 27.7804-23.258Z"/>
  </g>
  <g id="Heavy-L" transform="matrix(1 0 0 1 2566.3 1556)">
   <path d="M26.266-24.8231L114.535-24.8231C119.956-24.8231 124.687-29.5603 124.687-35.1837C124.687-40.8071 119.956-45.5442 114.535-45.5442L26.266-45.5442C21.0386-45.5442 16.084-40.8071 16.084-35.1837C16.084-29.5603 21.0386-24.8231 26.266-24.8231Z"/>
  </g>
  <g id="Bold-L" transform="matrix(1 0 0 1 2270.6 1556)">
   <path d="M24.406-26.7372L114.383-26.7372C118.82-26.7372 122.667-30.598 122.667-35.1761C122.667-39.7541 118.82-43.6149 114.383-43.6149L24.406-43.6149C20.0776-43.6149 16.084-39.7541 16.084-35.1761C16.084-30.598 20.0776-26.7372 24.406-26.7372Z"/>
  </g>
  <g id="Semibold-L" transform="matrix(1 0 0 1 1974.59 1556)">
   <path d="M23.1237-28.0567L114.279-28.0567C118.037-28.0567 121.275-31.3135 121.275-35.1708C121.275-39.0281 118.037-42.2849 114.279-42.2849L23.1237-42.2849C19.4151-42.2849 16.084-39.0281 16.084-35.1708C16.084-31.3135 19.4151-28.0567 23.1237-28.0567Z"/>
  </g>
  <g id="Medium-L" transform="matrix(1 0 0 1 1678.4 1556)">
   <path d="M22.1515-29.0573L114.199-29.0573C117.443-29.0573 120.219-31.8559 120.219-35.1668C120.219-38.4777 117.443-41.2764 114.199-41.2764L22.1515-41.2764C18.9127-41.2764 16.084-38.4777 16.084-35.1668C16.084-31.8559 18.9127-29.0573 22.1515-29.0573Z"/>
  </g>
  <g id="Regular-L" transform="matrix(1 0 0 1 1382.38 1556)">
   <path d="M20.8833-30.3623L114.095-30.3623C116.669-30.3623 118.842-32.5635 118.842-35.1616C118.842-37.7598 116.669-39.9609 114.095-39.9609L20.8833-39.9609C18.2575-39.9609 16.084-37.7598 16.084-35.1616C16.084-32.5635 18.2575-30.3623 20.8833-30.3623Z"/>
  </g>
  <g id="Light-L" transform="matrix(1 0 0 1 1086.48 1556)">
   <path d="M19.7-31.5265L113.637-31.5265C115.6-31.5265 117.22-33.1933 117.22-35.1425C117.22-37.0918 115.6-38.7586 113.637-38.7586L19.7-38.7586C17.704-38.7586 16.084-37.0918 16.084-35.1425C16.084-33.1933 17.704-31.5265 19.7-31.5265Z"/>
  </g>
  <g id="Thin-L" transform="matrix(1 0 0 1 790.843 1556)">
   <path d="M18.135-33.0663L113.032-33.0663C114.186-33.0663 115.074-34.0263 115.074-35.1173C115.074-36.2083 114.186-37.1683 113.032-37.1683L18.135-37.1683C16.972-37.1683 16.084-36.2083 16.084-35.1173C16.084-34.0263 16.972-33.0663 18.135-33.0663Z"/>
  </g>
  <g id="Ultralight-L" transform="matrix(1 0 0 1 494.681 1556)">
   <path d="M17.3334-33.8549L112.721-33.8549C113.462-33.8549 113.975-34.4529 113.975-35.1044C113.975-35.7558 113.462-36.3538 112.721-36.3538L17.3334-36.3538C16.5971-36.3538 16.084-35.7558 16.084-35.1044C16.084-34.4529 16.5971-33.8549 17.3334-33.8549Z"/>
  </g>
  <g id="Black-M" transform="matrix(1 0 0 1 2877.67 1126)">
   <path d="M22.6638-24.7673L88.8014-24.7673C94.2302-24.7673 98.9988-29.5357 98.9988-35.1986C98.9988-40.8616 94.2302-45.6299 88.8014-45.6299L22.6638-45.6299C17.515-45.6299 12.4609-40.8616 12.4609-35.1986C12.4609-29.5357 17.515-24.7673 22.6638-24.7673Z"/>
  </g>
  <g id="Heavy-M" transform="matrix(1 0 0 1 2581.67 1126)">
   <path d="M21.2926-26.1899L88.767-26.1899C93.4672-26.1899 97.5822-30.3073 97.5822-35.1961C97.5822-40.0849 93.4672-44.2022 88.767-44.2022L21.2926-44.2022C16.7941-44.2022 12.4609-40.0849 12.4609-35.1961C12.4609-30.3073 16.7941-26.1899 21.2926-26.1899Z"/>
  </g>
  <g id="Bold-M" transform="matrix(1 0 0 1 2285.75 1126)">
   <path d="M19.7586-27.7813L88.7285-27.7813C92.6136-27.7813 95.9976-31.1704 95.9976-35.1932C95.9976-39.216 92.6136-42.6051 88.7285-42.6051L19.7586-42.6051C15.9876-42.6051 12.4609-39.216 12.4609-35.1932C12.4609-31.1704 15.9876-27.7813 19.7586-27.7813Z"/>
  </g>
  <g id="Semibold-M" transform="matrix(1 0 0 1 1989.58 1126)">
   <path d="M18.7012-28.8784L88.7019-28.8784C92.0252-28.8784 94.9051-31.7654 94.9051-35.1912C94.9051-38.617 92.0252-41.5041 88.7019-41.5041L18.7012-41.5041C15.4317-41.5041 12.4609-38.617 12.4609-35.1912C12.4609-31.7654 15.4317-28.8784 18.7012-28.8784Z"/>
  </g>
  <g id="Medium-M" transform="matrix(1 0 0 1 1693.29 1126)">
   <path d="M17.8993-29.7102L88.6818-29.7102C91.579-29.7102 94.0768-32.2166 94.0768-35.1897C94.0768-38.1629 91.579-40.6692 88.6818-40.6692L17.8993-40.6692C15.0101-40.6692 12.4609-38.1629 12.4609-35.1897C12.4609-32.2166 15.0101-29.7102 17.8993-29.7102Z"/>
  </g>
  <g id="Regular-M" transform="matrix(1 0 0 1 1397.12 1126)">
   <path d="M16.8535-30.7953L88.6556-30.7953C90.997-30.7953 92.9963-32.8051 92.9963-35.1878C92.9963-37.5705 90.997-39.5803 88.6556-39.5803L16.8535-39.5803C14.4602-39.5803 12.4609-37.5705 12.4609-35.1878C12.4609-32.8051 14.4602-30.7953 16.8535-30.7953Z"/>
  </g>
  <g id="Light-M" transform="matrix(1 0 0 1 1101.13 1126)">
   <path d="M15.7926-31.839L88.2449-31.839C90.0388-31.839 91.5419-33.3698 91.5419-35.1707C91.5419-36.9716 90.0388-38.5023 88.2449-38.5023L15.7926-38.5023C13.964-38.5023 12.4609-36.9716 12.4609-35.1707C12.4609-33.3698 13.964-31.839 15.7926-31.839Z"/>
  </g>
  <g id="Thin-M" transform="matrix(1 0 0 1 805.383 1126)">
   <path d="M14.3895-33.2195L87.7018-33.2195C88.7715-33.2195 89.6183-34.1166 89.6183-35.148C89.6183-36.1795 88.7715-37.0766 87.7018-37.0766L14.3895-37.0766C13.3077-37.0766 12.4609-36.1795 12.4609-35.148C12.4609-34.1166 13.3077-33.2195 14.3895-33.2195Z"/>
  </g>
  <g id="Ultralight-M" transform="matrix(1 0 0 1 509.164 1126)">
   <path d="M13.6708-33.9266L87.4236-33.9266C88.1224-33.9266 88.633-34.4991 88.633-35.1365C88.633-35.7738 88.1224-36.3463 87.4236-36.3463L13.6708-36.3463C12.9716-36.3463 12.4609-35.7738 12.4609-35.1365C12.4609-34.4991 12.9716-33.9266 13.6708-33.9266Z"/>
  </g>
  <g id="Black-S" transform="matrix(1 0 0 1 2889.55 696)">
   <path d="M18.1152-26.6602L69.5801-26.6602C74.0234-26.6602 77.9297-30.5664 77.9297-35.2051C77.9297-39.8438 74.0234-43.75 69.5801-43.75L18.1152-43.75C13.916-43.75 9.76562-39.8438 9.76562-35.2051C9.76562-30.5664 13.916-26.6602 18.1152-26.6602Z"/>
  </g>
  <g id="Heavy-S" transform="matrix(1 0 0 1 2593.35 696)">
   <path d="M17.078-27.7435L69.6031-27.7435C73.4933-27.7435 76.904-31.1542 76.904-35.2051C76.904-39.256 73.4933-42.6667 69.6031-42.6667L17.078-42.6667C13.3628-42.6667 9.76562-39.256 9.76562-35.2051C9.76562-31.1542 13.3628-27.7435 17.078-27.7435Z"/>
  </g>
  <g id="Bold-S" transform="matrix(1 0 0 1 2297.22 696)">
   <path d="M15.918-28.9551L69.6289-28.9551C72.9004-28.9551 75.7568-31.8115 75.7568-35.2051C75.7568-38.5986 72.9004-41.4551 69.6289-41.4551L15.918-41.4551C12.7441-41.4551 9.76562-38.5986 9.76562-35.2051C9.76562-31.8115 12.7441-28.9551 15.918-28.9551Z"/>
  </g>
  <g id="Semibold-S" transform="matrix(1 0 0 1 2000.9 696)">
   <path d="M15.1182-29.7904L69.6467-29.7904C72.4916-29.7904 74.9659-32.2647 74.9659-35.2051C74.9659-38.1454 72.4916-40.6197 69.6467-40.6197L15.1182-40.6197C12.3176-40.6197 9.76562-38.1454 9.76562-35.2051C9.76562-32.2647 12.3176-29.7904 15.1182-29.7904Z"/>
  </g>
  <g id="Medium-S" transform="matrix(1 0 0 1 1704.49 696)">
   <path d="M14.5117-30.4238L69.6602-30.4238C72.1816-30.4238 74.3662-32.6084 74.3662-35.2051C74.3662-37.8018 72.1816-39.9863 69.6602-39.9863L14.5117-39.9863C11.9941-39.9863 9.76562-37.8018 9.76562-35.2051C9.76562-32.6084 11.9941-30.4238 14.5117-30.4238Z"/>
  </g>
  <g id="Regular-S" transform="matrix(1 0 0 1 1408.17 696)">
   <path d="M13.7207-31.25L69.6777-31.25C71.7773-31.25 73.584-33.0566 73.584-35.2051C73.584-37.3535 71.7773-39.1602 69.6777-39.1602L13.7207-39.1602C11.5723-39.1602 9.76562-37.3535 9.76562-35.2051C9.76562-33.0566 11.5723-31.25 13.7207-31.25Z"/>
  </g>
  <g id="Light-S" transform="matrix(1 0 0 1 1112.1 696)">
   <path d="M12.7822-32.1733L69.3145-32.1733C70.9297-32.1733 72.2974-33.5561 72.2974-35.1899C72.2974-36.8237 70.9297-38.2066 69.3145-38.2066L12.7822-38.2066C11.1333-38.2066 9.76562-36.8237 9.76562-35.1899C9.76562-33.5561 11.1333-32.1733 12.7822-32.1733Z"/>
  </g>
  <g id="Thin-S" transform="matrix(1 0 0 1 816.242 696)">
   <path d="M11.541-33.3945L68.834-33.3945C69.8086-33.3945 70.5957-34.2168 70.5957-35.1699C70.5957-36.1231 69.8086-36.9453 68.834-36.9453L11.541-36.9453C10.5527-36.9453 9.76562-36.1231 9.76562-35.1699C9.76562-34.2168 10.5527-33.3945 11.541-33.3945Z"/>
  </g>
  <g id="Ultralight-S" transform="matrix(1 0 0 1 519.966 696)">
   <path d="M10.9053-34.02L68.5879-34.02C69.2344-34.02 69.7242-34.5552 69.7242-35.1597C69.7242-35.7642 69.2344-36.2993 68.5879-36.2993L10.9053-36.2993C10.2554-36.2993 9.76562-35.7642 9.76562-35.1597C9.76562-34.5552 10.2554-34.02 10.9053-34.02Z"/>
  </g>
 </g>
</svg>
