<?xml version="1.0" encoding="UTF-8"?>
<!--Generator: Apple Native CoreSVG 175.5-->
<!DOCTYPE svg
PUBLIC "-//W3C//DTD SVG 1.1//EN"
       "http://www.w3.org/Graphics/SVG/1.1/DTD/svg11.dtd">
<svg version="1.1" xmlns="http://www.w3.org/2000/svg" xmlns:xlink="http://www.w3.org/1999/xlink" width="3300" height="2200">
 <!--glyph: "uni10017C.medium", point size: 100.0, font version: "18.0d12e2", template writer version: "101"-->
 <g id="Notes">
  <rect height="2200" id="artboard" style="fill:white;opacity:1" width="3300" x="0" y="0"/>
  <line style="fill:none;stroke:black;opacity:1;stroke-width:0.5;" x1="263" x2="3036" y1="292" y2="292"/>
  <text style="stroke:none;fill:black;font-family:sans-serif;font-size:13;font-weight:bold;" transform="matrix(1 0 0 1 263 322)">Weight/Scale Variations</text>
  <text style="stroke:none;fill:black;font-family:sans-serif;font-size:13;text-anchor:middle;" transform="matrix(1 0 0 1 559.711 322)">Ultralight</text>
  <text style="stroke:none;fill:black;font-family:sans-serif;font-size:13;text-anchor:middle;" transform="matrix(1 0 0 1 856.422 322)">Thin</text>
  <text style="stroke:none;fill:black;font-family:sans-serif;font-size:13;text-anchor:middle;" transform="matrix(1 0 0 1 1153.13 322)">Light</text>
  <text style="stroke:none;fill:black;font-family:sans-serif;font-size:13;text-anchor:middle;" transform="matrix(1 0 0 1 1449.84 322)">Regular</text>
  <text style="stroke:none;fill:black;font-family:sans-serif;font-size:13;text-anchor:middle;" transform="matrix(1 0 0 1 1746.56 322)">Medium</text>
  <text style="stroke:none;fill:black;font-family:sans-serif;font-size:13;text-anchor:middle;" transform="matrix(1 0 0 1 2043.27 322)">Semibold</text>
  <text style="stroke:none;fill:black;font-family:sans-serif;font-size:13;text-anchor:middle;" transform="matrix(1 0 0 1 2339.98 322)">Bold</text>
  <text style="stroke:none;fill:black;font-family:sans-serif;font-size:13;text-anchor:middle;" transform="matrix(1 0 0 1 2636.69 322)">Heavy</text>
  <text style="stroke:none;fill:black;font-family:sans-serif;font-size:13;text-anchor:middle;" transform="matrix(1 0 0 1 2933.4 322)">Black</text>
  <line style="fill:none;stroke:black;opacity:1;stroke-width:0.5;" x1="263" x2="3036" y1="1903" y2="1903"/>
  <g transform="matrix(1 0 0 1 263 1933)">
   <path d="M9.24805 0.830078C13.5547 0.830078 17.1387-2.74414 17.1387-7.05078C17.1387-11.3574 13.5449-14.9316 9.23828-14.9316C4.94141-14.9316 1.36719-11.3574 1.36719-7.05078C1.36719-2.74414 4.95117 0.830078 9.24805 0.830078ZM9.24805-0.654297C5.70312-0.654297 2.87109-3.49609 2.87109-7.05078C2.87109-10.6055 5.69336-13.4473 9.23828-13.4473C12.793-13.4473 15.6445-10.6055 15.6445-7.05078C15.6445-3.49609 12.8027-0.654297 9.24805-0.654297ZM5.6543-7.05078C5.6543-6.62109 5.95703-6.32812 6.40625-6.32812L8.50586-6.32812L8.50586-4.20898C8.50586-3.76953 8.79883-3.4668 9.22852-3.4668C9.67773-3.4668 9.9707-3.76953 9.9707-4.20898L9.9707-6.32812L12.0898-6.32812C12.5293-6.32812 12.832-6.62109 12.832-7.05078C12.832-7.49023 12.5293-7.79297 12.0898-7.79297L9.9707-7.79297L9.9707-9.90234C9.9707-10.3516 9.67773-10.6543 9.22852-10.6543C8.79883-10.6543 8.50586-10.3516 8.50586-9.90234L8.50586-7.79297L6.40625-7.79297C5.95703-7.79297 5.6543-7.49023 5.6543-7.05078Z"/>
  </g>
  <g transform="matrix(1 0 0 1 281.867 1933)">
   <path d="M11.709 2.91016C17.1582 2.91016 21.6699-1.61133 21.6699-7.05078C21.6699-12.5 17.1484-17.0117 11.6992-17.0117C6.25977-17.0117 1.74805-12.5 1.74805-7.05078C1.74805-1.61133 6.26953 2.91016 11.709 2.91016ZM11.709 1.25C7.09961 1.25 3.41797-2.44141 3.41797-7.05078C3.41797-11.6602 7.08984-15.3516 11.6992-15.3516C16.3086-15.3516 20.0098-11.6602 20.0098-7.05078C20.0098-2.44141 16.3184 1.25 11.709 1.25ZM7.17773-7.05078C7.17773-6.57227 7.50977-6.25 8.00781-6.25L10.8789-6.25L10.8789-3.36914C10.8789-2.88086 11.2109-2.53906 11.6895-2.53906C12.1777-2.53906 12.5195-2.87109 12.5195-3.36914L12.5195-6.25L15.4004-6.25C15.8887-6.25 16.2305-6.57227 16.2305-7.05078C16.2305-7.53906 15.8887-7.88086 15.4004-7.88086L12.5195-7.88086L12.5195-10.752C12.5195-11.25 12.1777-11.5918 11.6895-11.5918C11.2109-11.5918 10.8789-11.25 10.8789-10.752L10.8789-7.88086L8.00781-7.88086C7.50977-7.88086 7.17773-7.53906 7.17773-7.05078Z"/>
  </g>
  <g transform="matrix(1 0 0 1 305.646 1933)">
   <path d="M14.9707 5.66406C21.9336 5.66406 27.6953-0.0976562 27.6953-7.05078C27.6953-14.0137 21.9238-19.7754 14.9609-19.7754C8.00781-19.7754 2.25586-14.0137 2.25586-7.05078C2.25586-0.0976562 8.01758 5.66406 14.9707 5.66406ZM14.9707 3.84766C8.93555 3.84766 4.08203-1.01562 4.08203-7.05078C4.08203-13.0957 8.92578-17.9492 14.9609-17.9492C21.0059-17.9492 25.8691-13.0957 25.8691-7.05078C25.8691-1.01562 21.0156 3.84766 14.9707 3.84766ZM9.19922-7.05078C9.19922-6.5332 9.57031-6.17188 10.1172-6.17188L14.0625-6.17188L14.0625-2.2168C14.0625-1.67969 14.4336-1.29883 14.9512-1.29883C15.4883-1.29883 15.8594-1.66992 15.8594-2.2168L15.8594-6.17188L19.8145-6.17188C20.3516-6.17188 20.7324-6.5332 20.7324-7.05078C20.7324-7.59766 20.3613-7.96875 19.8145-7.96875L15.8594-7.96875L15.8594-11.9141C15.8594-12.4609 15.4883-12.8418 14.9512-12.8418C14.4336-12.8418 14.0625-12.4609 14.0625-11.9141L14.0625-7.96875L10.1172-7.96875C9.57031-7.96875 9.19922-7.59766 9.19922-7.05078Z"/>
  </g>
  <text style="stroke:none;fill:black;font-family:sans-serif;font-size:13;font-weight:bold;" transform="matrix(1 0 0 1 263 1953)">Design Variations</text>
  <text style="stroke:none;fill:black;font-family:sans-serif;font-size:13;" transform="matrix(1 0 0 1 263 1971)">Symbols are supported in up to nine weights and three scales.</text>
  <text style="stroke:none;fill:black;font-family:sans-serif;font-size:13;" transform="matrix(1 0 0 1 263 1989)">For optimal layout with text and other symbols, vertically align</text>
  <text style="stroke:none;fill:black;font-family:sans-serif;font-size:13;" transform="matrix(1 0 0 1 263 2007)">symbols with the adjacent text.</text>
  <line style="fill:none;stroke:#00AEEF;stroke-width:0.5;opacity:1.0;" x1="776" x2="776" y1="1919" y2="1933"/>
  <g transform="matrix(1 0 0 1 776 1933)">
   <path d="M3.31055 0.15625C3.82812 0.15625 4.08203-0.0390625 4.26758-0.585938L5.52734-4.0332L11.2891-4.0332L12.5488-0.585938C12.7344-0.0390625 12.9883 0.15625 13.4961 0.15625C14.0137 0.15625 14.3457-0.15625 14.3457-0.644531C14.3457-0.810547 14.3164-0.966797 14.2383-1.17188L9.6582-13.3691C9.43359-13.9648 9.0332-14.2676 8.4082-14.2676C7.80273-14.2676 7.39258-13.9746 7.17773-13.3789L2.59766-1.16211C2.51953-0.957031 2.49023-0.800781 2.49023-0.634766C2.49023-0.146484 2.80273 0.15625 3.31055 0.15625ZM6.00586-5.51758L8.37891-12.0898L8.42773-12.0898L10.8008-5.51758Z"/>
  </g>
  <line style="fill:none;stroke:#00AEEF;stroke-width:0.5;opacity:1.0;" x1="793.197" x2="793.197" y1="1919" y2="1933"/>
  <text style="stroke:none;fill:black;font-family:sans-serif;font-size:13;font-weight:bold;" transform="matrix(1 0 0 1 776 1953)">Margins</text>
  <text style="stroke:none;fill:black;font-family:sans-serif;font-size:13;" transform="matrix(1 0 0 1 776 1971)">Leading and trailing margins on the left and right side of each symbol</text>
  <text style="stroke:none;fill:black;font-family:sans-serif;font-size:13;" transform="matrix(1 0 0 1 776 1989)">can be adjusted by modifying the x-location of the margin guidelines.</text>
  <text style="stroke:none;fill:black;font-family:sans-serif;font-size:13;" transform="matrix(1 0 0 1 776 2007)">Modifications are automatically applied proportionally to all</text>
  <text style="stroke:none;fill:black;font-family:sans-serif;font-size:13;" transform="matrix(1 0 0 1 776 2025)">scales and weights.</text>
  <g transform="matrix(1 0 0 1 1289 1933)">
   <path d="M2.8418 1.86523L4.54102 3.57422C5.40039 4.44336 6.38672 4.38477 7.31445 3.35938L18.0078-8.42773L17.041-9.4043L6.42578 2.27539C6.07422 2.67578 5.74219 2.77344 5.27344 2.30469L4.10156 1.14258C3.63281 0.683594 3.74023 0.341797 4.14062-0.0195312L15.6152-10.8203L14.6387-11.7871L3.04688-0.898438C2.06055 0.0195312 1.98242 0.996094 2.8418 1.86523ZM9.25781-16.3281C8.83789-15.918 8.80859-15.3418 9.04297-14.9512C9.27734-14.5898 9.73633-14.3555 10.3809-14.5215C11.8457-14.8633 13.3691-14.9219 14.7949-13.9844L14.209-12.5293C13.8672-11.6992 14.043-11.1133 14.5801-10.5664L16.875-8.25195C17.3633-7.76367 17.7734-7.74414 18.3398-7.8418L19.4043-8.03711L20.0684-7.36328L20.0293-6.80664C19.9902-6.30859 20.1172-5.92773 20.6055-5.44922L21.3672-4.70703C21.8457-4.22852 22.4609-4.19922 22.9297-4.66797L25.8398-7.58789C26.3086-8.05664 26.2891-8.65234 25.8105-9.13086L25.0391-9.89258C24.5605-10.3711 24.1895-10.5273 23.7109-10.4883L23.1348-10.4395L22.4902-11.0742L22.7344-12.1973C22.8613-12.7637 22.7051-13.2031 22.1191-13.7891L19.9219-15.9766C16.582-19.2969 12.1484-19.2188 9.25781-16.3281ZM10.752-15.957C13.1836-17.7344 16.4746-17.4316 18.7012-15.2051L21.1328-12.793C21.3672-12.5586 21.4062-12.373 21.3379-12.0312L21.0156-10.5469L22.5195-9.0625L23.5059-9.12109C23.7598-9.13086 23.8379-9.11133 24.0332-8.91602L24.6094-8.33984L22.168-5.89844L21.5918-6.47461C21.3965-6.66992 21.3672-6.74805 21.377-7.01172L21.4453-7.98828L19.9512-9.47266L18.4277-9.21875C18.1055-9.15039 17.959-9.17969 17.7148-9.41406L15.7129-11.416C15.459-11.6504 15.4297-11.8164 15.5859-12.1875L16.4648-14.2773C14.9023-15.7324 12.8711-16.3574 10.8398-15.7617C10.6836-15.7227 10.625-15.8496 10.752-15.957Z"/>
  </g>
  <text style="stroke:none;fill:black;font-family:sans-serif;font-size:13;font-weight:bold;" transform="matrix(1 0 0 1 1289 1953)">Exporting</text>
  <text style="stroke:none;fill:black;font-family:sans-serif;font-size:13;" transform="matrix(1 0 0 1 1289 1971)">Symbols should be outlined when exporting to ensure the</text>
  <text style="stroke:none;fill:black;font-family:sans-serif;font-size:13;" transform="matrix(1 0 0 1 1289 1989)">design is preserved when submitting to Xcode.</text>
  <text id="template-version" style="stroke:none;fill:black;font-family:sans-serif;font-size:13;text-anchor:end;" transform="matrix(1 0 0 1 3036 1933)">Template v.2.0</text>
  <text style="stroke:none;fill:black;font-family:sans-serif;font-size:13;text-anchor:end;" transform="matrix(1 0 0 1 3036 1951)">Requires Xcode 12 or greater</text>
  <text id="descriptive-name" style="stroke:none;fill:black;font-family:sans-serif;font-size:13;text-anchor:end;" transform="matrix(1 0 0 1 3036 1969)">Generated from plus</text>
  <text style="stroke:none;fill:black;font-family:sans-serif;font-size:13;text-anchor:end;" transform="matrix(1 0 0 1 3036 1987)">Typeset at 100 points</text>
  <text style="stroke:none;fill:black;font-family:sans-serif;font-size:13;" transform="matrix(1 0 0 1 263 726)">Small</text>
  <text style="stroke:none;fill:black;font-family:sans-serif;font-size:13;" transform="matrix(1 0 0 1 263 1156)">Medium</text>
  <text style="stroke:none;fill:black;font-family:sans-serif;font-size:13;" transform="matrix(1 0 0 1 263 1586)">Large</text>
 </g>
 <g id="Guides">
  <g id="H-reference" style="fill:#27AAE1;stroke:none;" transform="matrix(1 0 0 1 339 696)">
   <path d="M0.993654 0L3.63775 0L29.3281-67.1323L30.0303-67.1323L30.0303-70.459L28.1226-70.459ZM11.6885-24.4799L46.9815-24.4799L46.2315-26.7285L12.4385-26.7285ZM55.1196 0L57.7637 0L30.6382-70.459L29.4326-70.459L29.4326-67.1323Z"/>
  </g>
  <line id="Baseline-S" style="fill:none;stroke:#27AAE1;opacity:1;stroke-width:0.5;" x1="263" x2="3036" y1="696" y2="696"/>
  <line id="Capline-S" style="fill:none;stroke:#27AAE1;opacity:1;stroke-width:0.5;" x1="263" x2="3036" y1="625.541" y2="625.541"/>
  <g id="H-reference" style="fill:#27AAE1;stroke:none;" transform="matrix(1 0 0 1 339 1126)">
   <path d="M0.993654 0L3.63775 0L29.3281-67.1323L30.0303-67.1323L30.0303-70.459L28.1226-70.459ZM11.6885-24.4799L46.9815-24.4799L46.2315-26.7285L12.4385-26.7285ZM55.1196 0L57.7637 0L30.6382-70.459L29.4326-70.459L29.4326-67.1323Z"/>
  </g>
  <line id="Baseline-M" style="fill:none;stroke:#27AAE1;opacity:1;stroke-width:0.5;" x1="263" x2="3036" y1="1126" y2="1126"/>
  <line id="Capline-M" style="fill:none;stroke:#27AAE1;opacity:1;stroke-width:0.5;" x1="263" x2="3036" y1="1055.54" y2="1055.54"/>
  <g id="H-reference" style="fill:#27AAE1;stroke:none;" transform="matrix(1 0 0 1 339 1556)">
   <path d="M0.993654 0L3.63775 0L29.3281-67.1323L30.0303-67.1323L30.0303-70.459L28.1226-70.459ZM11.6885-24.4799L46.9815-24.4799L46.2315-26.7285L12.4385-26.7285ZM55.1196 0L57.7637 0L30.6382-70.459L29.4326-70.459L29.4326-67.1323Z"/>
  </g>
  <line id="Baseline-L" style="fill:none;stroke:#27AAE1;opacity:1;stroke-width:0.5;" x1="263" x2="3036" y1="1556" y2="1556"/>
  <line id="Capline-L" style="fill:none;stroke:#27AAE1;opacity:1;stroke-width:0.5;" x1="263" x2="3036" y1="1485.54" y2="1485.54"/>
  <line id="left-margin" style="fill:none;stroke:#00AEEF;stroke-width:0.5;opacity:1.0;" x1="1397.12" x2="1397.12" y1="1030.79" y2="1150.12"/>
  <line id="right-margin" style="fill:none;stroke:#00AEEF;stroke-width:0.5;opacity:1.0;" x1="1502.57" x2="1502.57" y1="1030.79" y2="1150.12"/>
 </g>
 <g id="Symbols">
  <g id="Black-L" transform="matrix(1 0 0 1 2861.98 1556)">
   <path d="M16.084-35.2113C16.084-28.6179 21.4195-23.2812 28.014-23.2812L59.5006-23.2812L59.5006 8.20535C59.5006 14.7791 64.8373 20.1354 71.4307 20.1354C78.024 20.1354 83.3399 14.7791 83.3399 8.20535L83.3399-23.2812L114.847-23.2812C121.421-23.2812 126.757-28.6179 126.757-35.2113C126.757-41.8046 121.421-47.1414 114.847-47.1414L83.3399-47.1414L83.3399-78.6279C83.3399-85.2017 78.024-90.558 71.4307-90.558C64.8373-90.558 59.5006-85.2017 59.5006-78.6279L59.5006-47.1414L28.014-47.1414C21.4195-47.1414 16.084-41.8046 16.084-35.2113Z"/>
  </g>
  <g id="Heavy-L" transform="matrix(1 0 0 1 2566.12 1556)">
   <path d="M16.084-35.2251C16.084-29.5124 20.7263-24.8645 26.4445-24.8645L60.2186-24.8645L60.2186 8.90954C60.2186 14.5976 64.8665 19.2701 70.5791 19.2701C76.2918 19.2701 80.9095 14.5976 80.9095 8.90954L80.9095-24.8645L114.714-24.8645C120.402-24.8645 125.044-29.5124 125.044-35.2251C125.044-40.9377 120.402-45.5856 114.714-45.5856L80.9095-45.5856L80.9095-79.3597C80.9095-85.0478 76.2918-89.7202 70.5791-89.7202C64.8665-89.7202 60.2186-85.0478 60.2186-79.3597L60.2186-45.5856L26.4445-45.5856C20.7263-45.5856 16.084-40.9377 16.084-35.2251Z"/>
  </g>
  <g id="Bold-L" transform="matrix(1 0 0 1 2270.49 1556)">
   <path d="M16.084-35.2405C16.084-30.6041 19.8732-26.8016 24.5228-26.8016L61.0726-26.8016L61.0726 9.74814C61.0726 14.3598 64.875 18.187 69.5115 18.187C74.1479 18.187 77.9123 14.3598 77.9123 9.74814L77.9123-26.8016L114.5-26.8016C119.112-26.8016 122.901-30.6041 122.901-35.2405C122.901-39.8769 119.112-43.6794 114.5-43.6794L77.9123-43.6794L77.9123-80.2291C77.9123-84.8408 74.1479-88.668 69.5115-88.668C64.875-88.668 61.0726-84.8408 61.0726-80.2291L61.0726-43.6794L24.5228-43.6794C19.8732-43.6794 16.084-39.8769 16.084-35.2405Z"/>
  </g>
  <g id="Semibold-L" transform="matrix(1 0 0 1 1974.51 1556)">
   <path d="M16.084-35.2511C16.084-31.3566 19.2851-28.1371 23.198-28.1371L61.6614-28.1371L61.6614 10.3263C61.6614 14.1959 64.8809 17.4403 68.7754 17.4403C72.6699 17.4403 75.8461 14.1959 75.8461 10.3263L75.8461-28.1371L114.353-28.1371C118.222-28.1371 121.424-31.3566 121.424-35.2511C121.424-39.1456 118.222-42.3652 114.353-42.3652L75.8461-42.3652L75.8461-80.8285C75.8461-84.6981 72.6699-87.9426 68.7754-87.9426C64.8809-87.9426 61.6614-84.6981 61.6614-80.8285L61.6614-42.3652L23.198-42.3652C19.2851-42.3652 16.084-39.1456 16.084-35.2511Z"/>
  </g>
  <g id="Medium-L" transform="matrix(1 0 0 1 1678.36 1556)">
   <path d="M16.084-35.2592C16.084-31.9273 18.8391-29.1496 22.1935-29.1496L62.1078-29.1496L62.1078 10.7646C62.1078 14.0716 64.8854 16.8742 68.2173 16.8742C71.5493 16.8742 74.2794 14.0716 74.2794 10.7646L74.2794-29.1496L114.241-29.1496C117.548-29.1496 120.303-31.9273 120.303-35.2592C120.303-38.5911 117.548-41.3687 114.241-41.3687L74.2794-41.3687L74.2794-81.283C74.2794-84.5899 71.5493-87.3925 68.2173-87.3925C64.8854-87.3925 62.1078-84.5899 62.1078-81.283L62.1078-41.3687L22.1935-41.3687C18.8391-41.3687 16.084-38.5911 16.084-35.2592Z"/>
  </g>
  <g id="Regular-L" transform="matrix(1 0 0 1 1382.38 1556)">
   <path d="M16.084-35.2697C16.084-32.6716 18.2575-30.4704 20.8833-30.4704L62.6901-30.4704L62.6901 11.3364C62.6901 13.9094 64.8912 16.1357 67.4894 16.1357C70.0875 16.1357 72.2359 13.9094 72.2359 11.3364L72.2359-30.4704L114.095-30.4704C116.669-30.4704 118.842-32.6716 118.842-35.2697C118.842-37.8679 116.669-40.069 114.095-40.069L72.2359-40.069L72.2359-81.8758C72.2359-84.4488 70.0875-86.6751 67.4894-86.6751C64.8912-86.6751 62.6901-84.4488 62.6901-81.8758L62.6901-40.069L20.8833-40.069C18.2575-40.069 16.084-37.8679 16.084-35.2697Z"/>
  </g>
  <g id="Light-L" transform="matrix(1 0 0 1 1086.48 1556)">
   <path d="M16.084-35.2697C16.084-33.3205 17.704-31.6537 19.7-31.6537L63.0527-31.6537L63.0527 11.699C63.0527 13.6613 64.7195 15.315 66.6687 15.315C68.618 15.315 70.251 13.6613 70.251 11.699L70.251-31.6537L113.637-31.6537C115.6-31.6537 117.22-33.3205 117.22-35.2697C117.22-37.219 115.6-38.8857 113.637-38.8857L70.251-38.8857L70.251-82.2384C70.251-84.2007 68.618-85.8544 66.6687-85.8544C64.7195-85.8544 63.0527-84.2007 63.0527-82.2384L63.0527-38.8857L19.7-38.8857C17.704-38.8857 16.084-37.219 16.084-35.2697Z"/>
  </g>
  <g id="Thin-L" transform="matrix(1 0 0 1 790.843 1556)">
   <path d="M16.084-35.2697C16.084-34.1787 16.972-33.2187 18.135-33.2187L63.5323-33.2187L63.5323 12.1786C63.5323 13.3332 64.4923 14.2296 65.5833 14.2296C66.6743 14.2296 67.6259 13.3332 67.6259 12.1786L67.6259-33.2187L113.032-33.2187C114.186-33.2187 115.074-34.1787 115.074-35.2697C115.074-36.3607 114.186-37.3207 113.032-37.3207L67.6259-37.3207L67.6259-82.718C67.6259-83.8726 66.6743-84.769 65.5833-84.769C64.4923-84.769 63.5323-83.8726 63.5323-82.718L63.5323-37.3207L18.135-37.3207C16.972-37.3207 16.084-36.3607 16.084-35.2697Z"/>
  </g>
  <g id="Ultralight-L" transform="matrix(1 0 0 1 494.681 1556)">
   <path d="M16.084-35.2697C16.084-34.6183 16.5971-34.0203 17.3334-34.0203L63.7779-34.0203L63.7779 12.4243C63.7779 13.1651 64.3759 13.6737 65.0274 13.6737C65.6788 13.6737 66.2813 13.1651 66.2813 12.4243L66.2813-34.0203L112.721-34.0203C113.462-34.0203 113.975-34.6183 113.975-35.2697C113.975-35.9212 113.462-36.5191 112.721-36.5191L66.2813-36.5191L66.2813-82.9637C66.2813-83.7045 65.6788-84.2131 65.0274-84.2131C64.3759-84.2131 63.7779-83.7045 63.7779-82.9637L63.7779-36.5191L17.3334-36.5191C16.5971-36.5191 16.084-35.9212 16.084-35.2697Z"/>
  </g>
  <g id="Black-M" transform="matrix(1 0 0 1 2877.44 1126)">
   <path d="M12.4609-35.2035C12.4609-29.4264 17.1154-24.7723 22.8922-24.7723L45.5297-24.7723L45.5297-2.13477C45.5297 3.63659 50.1839 8.29651 55.961 8.29651C61.7381 8.29651 66.3868 3.63659 66.3868-2.13477L66.3868-24.7723L89.0298-24.7723C94.8011-24.7723 99.4556-29.4264 99.4556-35.2035C99.4556-40.9807 94.8011-45.6348 89.0298-45.6348L66.3868-45.6348L66.3868-68.2723C66.3868-74.0437 61.7381-78.7036 55.961-78.7036C50.1839-78.7036 45.5297-74.0437 45.5297-68.2723L45.5297-45.6348L22.8922-45.6348C17.1154-45.6348 12.4609-40.9807 12.4609-35.2035Z"/>
  </g>
  <g id="Heavy-M" transform="matrix(1 0 0 1 2581.49 1126)">
   <path d="M12.4609-35.217C12.4609-30.241 16.4888-26.2109 21.4671-26.2109L46.1981-26.2109L46.1981-1.47983C46.1981 3.48208 50.2282 7.52631 55.2043 7.52631C60.1803 7.52631 64.194 3.48208 64.194-1.47983L64.194-26.2109L88.9415-26.2109C93.9034-26.2109 97.9312-30.241 97.9312-35.217C97.9312-40.1931 93.9034-44.2232 88.9415-44.2232L64.194-44.2232L64.194-68.9542C64.194-73.9161 60.1803-77.9604 55.2043-77.9604C50.2282-77.9604 46.1981-73.9161 46.1981-68.9542L46.1981-44.2232L21.4671-44.2232C16.4888-44.2232 12.4609-40.1931 12.4609-35.217Z"/>
  </g>
  <g id="Bold-M" transform="matrix(1 0 0 1 2285.63 1126)">
   <path d="M12.4609-35.2321C12.4609-31.1522 15.7878-27.8202 19.8728-27.8202L46.9459-27.8202L46.9459-0.747181C46.9459 3.30923 50.2779 6.66472 54.3578 6.66472C58.4377 6.66472 61.741 3.30923 61.741-0.747181L61.741-27.8202L88.8427-27.8202C92.8991-27.8202 96.2259-31.1522 96.2259-35.2321C96.2259-39.312 92.8991-42.644 88.8427-42.644L61.741-42.644L61.741-69.717C61.741-73.7734 58.4377-77.1289 54.3578-77.1289C50.2779-77.1289 46.9459-73.7734 46.9459-69.717L46.9459-42.644L19.8728-42.644C15.7878-42.644 12.4609-39.312 12.4609-35.2321Z"/>
  </g>
  <g id="Semibold-M" transform="matrix(1 0 0 1 1989.51 1126)">
   <path d="M12.4609-35.2425C12.4609-31.7804 15.3046-28.9296 18.7738-28.9296L47.4613-28.9296L47.4613-0.242097C47.4613 3.19008 50.3121 6.07075 53.7742 6.07075C57.2363 6.07075 60.05 3.19008 60.05-0.242097L60.05-28.9296L88.7746-28.9296C92.2067-28.9296 95.0504-31.7804 95.0504-35.2425C95.0504-38.7046 92.2067-41.5553 88.7746-41.5553L60.05-41.5553L60.05-70.2429C60.05-73.6751 57.2363-76.5557 53.7742-76.5557C50.3121-76.5557 47.4613-73.6751 47.4613-70.2429L47.4613-41.5553L18.7738-41.5553C15.3046-41.5553 12.4609-38.7046 12.4609-35.2425Z"/>
  </g>
  <g id="Medium-M" transform="matrix(1 0 0 1 1693.25 1126)">
   <path d="M12.4609-35.2504C12.4609-32.2567 14.9382-29.7709 17.9404-29.7709L47.8522-29.7709L47.8522 0.140878C47.8522 3.09973 50.338 5.62037 53.3317 5.62037C56.3254 5.62037 58.7677 3.09973 58.7677 0.140878L58.7677-29.7709L88.7229-29.7709C91.6818-29.7709 94.159-32.2567 94.159-35.2504C94.159-38.244 91.6818-40.7299 88.7229-40.7299L58.7677-40.7299L58.7677-70.6416C58.7677-73.6005 56.3254-76.1211 53.3317-76.1211C50.338-76.1211 47.8522-73.6005 47.8522-70.6416L47.8522-40.7299L17.9404-40.7299C14.9382-40.7299 12.4609-38.244 12.4609-35.2504Z"/>
  </g>
  <g id="Regular-M" transform="matrix(1 0 0 1 1397.12 1126)">
   <path d="M12.4609-35.2606C12.4609-32.878 14.4602-30.8681 16.8535-30.8681L48.362-30.8681L48.362 0.640411C48.362 2.98188 50.3718 5.03293 52.7545 5.03293C55.1372 5.03293 57.0953 2.98188 57.0953 0.640411L57.0953-30.8681L88.6556-30.8681C90.997-30.8681 92.9963-32.878 92.9963-35.2606C92.9963-37.6433 90.997-39.6532 88.6556-39.6532L57.0953-39.6532L57.0953-71.1617C57.0953-73.5032 55.1372-75.5542 52.7545-75.5542C50.3718-75.5542 48.362-73.5032 48.362-71.1617L48.362-39.6532L16.8535-39.6532C14.4602-39.6532 12.4609-37.6433 12.4609-35.2606Z"/>
  </g>
  <g id="Light-M" transform="matrix(1 0 0 1 1101.13 1126)">
   <path d="M12.4609-35.2606C12.4609-33.4597 13.964-31.929 15.7926-31.929L48.6871-31.929L48.6871 0.965519C48.6871 2.75944 50.2178 4.29716 52.0187 4.29716C53.8196 4.29716 55.3157 2.75944 55.3157 0.965519L55.3157-31.929L88.2449-31.929C90.0388-31.929 91.5419-33.4597 91.5419-35.2606C91.5419-37.0615 90.0388-38.5923 88.2449-38.5923L55.3157-38.5923L55.3157-71.4868C55.3157-73.2807 53.8196-74.8184 52.0187-74.8184C50.2178-74.8184 48.6871-73.2807 48.6871-71.4868L48.6871-38.5923L15.7926-38.5923C13.964-38.5923 12.4609-37.0615 12.4609-35.2606Z"/>
  </g>
  <g id="Thin-M" transform="matrix(1 0 0 1 805.383 1126)">
   <path d="M12.4609-35.2606C12.4609-34.2292 13.3077-33.3321 14.3895-33.3321L49.1171-33.3321L49.1171 1.3955C49.1171 2.46524 50.0142 3.32404 51.0456 3.32404C52.0771 3.32404 52.9622 2.46524 52.9622 1.3955L52.9622-33.3321L87.7018-33.3321C88.7715-33.3321 89.6183-34.2292 89.6183-35.2606C89.6183-36.2921 88.7715-37.1892 87.7018-37.1892L52.9622-37.1892L52.9622-71.9168C52.9622-72.9865 52.0771-73.8453 51.0456-73.8453C50.0142-73.8453 49.1171-72.9865 49.1171-71.9168L49.1171-37.1892L14.3895-37.1892C13.3077-37.1892 12.4609-36.2921 12.4609-35.2606Z"/>
  </g>
  <g id="Ultralight-M" transform="matrix(1 0 0 1 509.164 1126)">
   <path d="M12.4609-35.2606C12.4609-34.6233 12.9716-34.0508 13.6708-34.0508L49.3373-34.0508L49.3373 1.61573C49.3373 2.31455 49.9098 2.82562 50.5472 2.82562C51.1846 2.82562 51.7567 2.31455 51.7567 1.61573L51.7567-34.0508L87.4236-34.0508C88.1224-34.0508 88.633-34.6233 88.633-35.2606C88.633-35.898 88.1224-36.4705 87.4236-36.4705L51.7567-36.4705L51.7567-72.137C51.7567-72.8358 51.1846-73.3469 50.5472-73.3469C49.9098-73.3469 49.3373-72.8358 49.3373-72.137L49.3373-36.4705L13.6708-36.4705C12.9716-36.4705 12.4609-35.898 12.4609-35.2606Z"/>
  </g>
  <g id="Black-S" transform="matrix(1 0 0 1 2889.36 696)">
   <path d="M9.76562-35.2051C9.76562-30.4688 13.5742-26.6602 18.3105-26.6602L35.498-26.6602L35.498-9.47266C35.498-4.73633 39.3066-0.927734 44.043-0.927734C48.7793-0.927734 52.5879-4.73633 52.5879-9.47266L52.5879-26.6602L69.7754-26.6602C74.5117-26.6602 78.3203-30.4688 78.3203-35.2051C78.3203-39.9414 74.5117-43.75 69.7754-43.75L52.5879-43.75L52.5879-60.9375C52.5879-65.6738 48.7793-69.4824 44.043-69.4824C39.3066-69.4824 35.498-65.6738 35.498-60.9375L35.498-43.75L18.3105-43.75C13.5742-43.75 9.76562-39.9414 9.76562-35.2051Z"/>
  </g>
  <g id="Heavy-S" transform="matrix(1 0 0 1 2593.2 696)">
   <path d="M9.76562-35.2166C9.76562-31.0911 13.1017-27.755 17.2272-27.755L36.0282-27.755L36.0282-8.95406C36.0282-4.84005 39.3643-1.49243 43.4898-1.49243C47.6153-1.49243 50.9399-4.84005 50.9399-8.95406L50.9399-27.755L69.7523-27.755C73.8663-27.755 77.2024-31.0911 77.2024-35.2166C77.2024-39.3421 73.8663-42.6782 69.7523-42.6782L50.9399-42.6782L50.9399-61.4791C50.9399-65.5932 47.6153-68.9408 43.4898-68.9408C39.3643-68.9408 36.0282-65.5932 36.0282-61.4791L36.0282-42.6782L17.2272-42.6782C13.1017-42.6782 9.76562-39.3421 9.76562-35.2166Z"/>
  </g>
  <g id="Bold-S" transform="matrix(1 0 0 1 2297.12 696)">
   <path d="M9.76562-35.2295C9.76562-31.7871 12.5732-28.9795 16.0156-28.9795L36.6211-28.9795L36.6211-8.37402C36.6211-4.95605 39.4287-2.12402 42.8711-2.12402C46.3135-2.12402 49.0967-4.95605 49.0967-8.37402L49.0967-28.9795L69.7266-28.9795C73.1445-28.9795 75.9521-31.7871 75.9521-35.2295C75.9521-38.6719 73.1445-41.4795 69.7266-41.4795L49.0967-41.4795L49.0967-62.085C49.0967-65.5029 46.3135-68.335 42.8711-68.335C39.4287-68.335 36.6211-65.5029 36.6211-62.085L36.6211-41.4795L16.0156-41.4795C12.5732-41.4795 9.76562-38.6719 9.76562-35.2295Z"/>
  </g>
  <g id="Semibold-S" transform="matrix(1 0 0 1 2000.84 696)">
   <path d="M9.76562-35.2384C9.76562-32.267 12.2089-29.8237 15.1803-29.8237L37.0299-29.8237L37.0299-7.97412C37.0299-5.03604 39.4731-2.55947 42.4445-2.55947C45.4159-2.55947 47.8259-5.03604 47.8259-7.97412L47.8259-29.8237L69.7088-29.8237C72.6469-29.8237 75.0901-32.267 75.0901-35.2384C75.0901-38.2098 72.6469-40.653 69.7088-40.653L47.8259-40.653L47.8259-62.5026C47.8259-65.4407 45.4159-67.9173 42.4445-67.9173C39.4731-67.9173 37.0299-65.4407 37.0299-62.5026L37.0299-40.653L15.1803-40.653C12.2089-40.653 9.76562-38.2098 9.76562-35.2384Z"/>
  </g>
  <g id="Medium-S" transform="matrix(1 0 0 1 1704.45 696)">
   <path d="M9.76562-35.2451C9.76562-32.6309 11.9326-30.4639 14.5469-30.4639L37.3398-30.4639L37.3398-7.6709C37.3398-5.09668 39.5068-2.88965 42.1211-2.88965C44.7354-2.88965 46.8623-5.09668 46.8623-7.6709L46.8623-30.4639L69.6953-30.4639C72.2695-30.4639 74.4365-32.6309 74.4365-35.2451C74.4365-37.8594 72.2695-40.0264 69.6953-40.0264L46.8623-40.0264L46.8623-62.8193C46.8623-65.3936 44.7354-67.6006 42.1211-67.6006C39.5068-67.6006 37.3398-65.3936 37.3398-62.8193L37.3398-40.0264L14.5469-40.0264C11.9326-40.0264 9.76562-37.8594 9.76562-35.2451Z"/>
  </g>
  <g id="Regular-S" transform="matrix(1 0 0 1 1408.17 696)">
   <path d="M9.76562-35.2539C9.76562-33.1055 11.5723-31.2988 13.7207-31.2988L37.7441-31.2988L37.7441-7.27539C37.7441-5.17578 39.5508-3.32031 41.6992-3.32031C43.8477-3.32031 45.6055-5.17578 45.6055-7.27539L45.6055-31.2988L69.6777-31.2988C71.7773-31.2988 73.584-33.1055 73.584-35.2539C73.584-37.4023 71.7773-39.209 69.6777-39.209L45.6055-39.209L45.6055-63.2324C45.6055-65.332 43.8477-67.1875 41.6992-67.1875C39.5508-67.1875 37.7441-65.332 37.7441-63.2324L37.7441-39.209L13.7207-39.209C11.5723-39.209 9.76562-37.4023 9.76562-35.2539Z"/>
  </g>
  <g id="Light-S" transform="matrix(1 0 0 1 1112.1 696)">
   <path d="M9.76562-35.2539C9.76562-33.6201 11.1333-32.2373 12.7822-32.2373L38.0317-32.2373L38.0317-6.9878C38.0317-5.37256 39.4146-3.97119 41.0483-3.97119C42.6821-3.97119 44.0313-5.37256 44.0313-6.9878L44.0313-32.2373L69.3145-32.2373C70.9297-32.2373 72.2974-33.6201 72.2974-35.2539C72.2974-36.8877 70.9297-38.2705 69.3145-38.2705L44.0313-38.2705L44.0313-63.52C44.0313-65.1353 42.6821-66.5366 41.0483-66.5366C39.4146-66.5366 38.0317-65.1353 38.0317-63.52L38.0317-38.2705L12.7822-38.2705C11.1333-38.2705 9.76562-36.8877 9.76562-35.2539Z"/>
  </g>
  <g id="Thin-S" transform="matrix(1 0 0 1 816.242 696)">
   <path d="M9.76562-35.2539C9.76562-34.3008 10.5527-33.4785 11.541-33.4785L38.4121-33.4785L38.4121-6.60743C38.4121-5.63281 39.2344-4.83202 40.1875-4.83202C41.1406-4.83202 41.9492-5.63281 41.9492-6.60743L41.9492-33.4785L68.834-33.4785C69.8086-33.4785 70.5957-34.3008 70.5957-35.2539C70.5957-36.207 69.8086-37.0293 68.834-37.0293L41.9492-37.0293L41.9492-63.9004C41.9492-64.875 41.1406-65.6758 40.1875-65.6758C39.2344-65.6758 38.4121-64.875 38.4121-63.9004L38.4121-37.0293L11.541-37.0293C10.5527-37.0293 9.76562-36.207 9.76562-35.2539Z"/>
  </g>
  <g id="Ultralight-S" transform="matrix(1 0 0 1 519.966 696)">
   <path d="M9.76562-35.2539C9.76562-34.6494 10.2554-34.1142 10.9053-34.1142L38.6069-34.1142L38.6069-6.4126C38.6069-5.76611 39.1421-5.27293 39.7466-5.27293C40.3511-5.27293 40.8828-5.76611 40.8828-6.4126L40.8828-34.1142L68.5879-34.1142C69.2344-34.1142 69.7242-34.6494 69.7242-35.2539C69.7242-35.8584 69.2344-36.3936 68.5879-36.3936L40.8828-36.3936L40.8828-64.0952C40.8828-64.7417 40.3511-65.2349 39.7466-65.2349C39.1421-65.2349 38.6069-64.7417 38.6069-64.0952L38.6069-36.3936L10.9053-36.3936C10.2554-36.3936 9.76562-35.8584 9.76562-35.2539Z"/>
  </g>
 </g>
</svg>
