<?xml version="1.0" encoding="UTF-8"?>
<!--Generator: Apple Native CoreSVG 175.5-->
<!DOCTYPE svg
PUBLIC "-//W3C//DTD SVG 1.1//EN"
       "http://www.w3.org/Graphics/SVG/1.1/DTD/svg11.dtd">
<svg version="1.1" xmlns="http://www.w3.org/2000/svg" xmlns:xlink="http://www.w3.org/1999/xlink" width="3300" height="2200">
 <!--glyph: "uni1003DA.medium", point size: 100.0, font version: "18.0d12e2", template writer version: "101"-->
 <g id="Notes">
  <rect height="2200" id="artboard" style="fill:white;opacity:1" width="3300" x="0" y="0"/>
  <line style="fill:none;stroke:black;opacity:1;stroke-width:0.5;" x1="263" x2="3036" y1="292" y2="292"/>
  <text style="stroke:none;fill:black;font-family:sans-serif;font-size:13;font-weight:bold;" transform="matrix(1 0 0 1 263 322)">Weight/Scale Variations</text>
  <text style="stroke:none;fill:black;font-family:sans-serif;font-size:13;text-anchor:middle;" transform="matrix(1 0 0 1 559.711 322)">Ultralight</text>
  <text style="stroke:none;fill:black;font-family:sans-serif;font-size:13;text-anchor:middle;" transform="matrix(1 0 0 1 856.422 322)">Thin</text>
  <text style="stroke:none;fill:black;font-family:sans-serif;font-size:13;text-anchor:middle;" transform="matrix(1 0 0 1 1153.13 322)">Light</text>
  <text style="stroke:none;fill:black;font-family:sans-serif;font-size:13;text-anchor:middle;" transform="matrix(1 0 0 1 1449.84 322)">Regular</text>
  <text style="stroke:none;fill:black;font-family:sans-serif;font-size:13;text-anchor:middle;" transform="matrix(1 0 0 1 1746.56 322)">Medium</text>
  <text style="stroke:none;fill:black;font-family:sans-serif;font-size:13;text-anchor:middle;" transform="matrix(1 0 0 1 2043.27 322)">Semibold</text>
  <text style="stroke:none;fill:black;font-family:sans-serif;font-size:13;text-anchor:middle;" transform="matrix(1 0 0 1 2339.98 322)">Bold</text>
  <text style="stroke:none;fill:black;font-family:sans-serif;font-size:13;text-anchor:middle;" transform="matrix(1 0 0 1 2636.69 322)">Heavy</text>
  <text style="stroke:none;fill:black;font-family:sans-serif;font-size:13;text-anchor:middle;" transform="matrix(1 0 0 1 2933.4 322)">Black</text>
  <line style="fill:none;stroke:black;opacity:1;stroke-width:0.5;" x1="263" x2="3036" y1="1903" y2="1903"/>
  <g transform="matrix(1 0 0 1 263 1933)">
   <path d="M9.24805 0.830078C13.5547 0.830078 17.1387-2.74414 17.1387-7.05078C17.1387-11.3574 13.5449-14.9316 9.23828-14.9316C4.94141-14.9316 1.36719-11.3574 1.36719-7.05078C1.36719-2.74414 4.95117 0.830078 9.24805 0.830078ZM9.24805-0.654297C5.70312-0.654297 2.87109-3.49609 2.87109-7.05078C2.87109-10.6055 5.69336-13.4473 9.23828-13.4473C12.793-13.4473 15.6445-10.6055 15.6445-7.05078C15.6445-3.49609 12.8027-0.654297 9.24805-0.654297ZM5.6543-7.05078C5.6543-6.62109 5.95703-6.32812 6.40625-6.32812L8.50586-6.32812L8.50586-4.20898C8.50586-3.76953 8.79883-3.4668 9.22852-3.4668C9.67773-3.4668 9.9707-3.76953 9.9707-4.20898L9.9707-6.32812L12.0898-6.32812C12.5293-6.32812 12.832-6.62109 12.832-7.05078C12.832-7.49023 12.5293-7.79297 12.0898-7.79297L9.9707-7.79297L9.9707-9.90234C9.9707-10.3516 9.67773-10.6543 9.22852-10.6543C8.79883-10.6543 8.50586-10.3516 8.50586-9.90234L8.50586-7.79297L6.40625-7.79297C5.95703-7.79297 5.6543-7.49023 5.6543-7.05078Z"/>
  </g>
  <g transform="matrix(1 0 0 1 281.867 1933)">
   <path d="M11.709 2.91016C17.1582 2.91016 21.6699-1.61133 21.6699-7.05078C21.6699-12.5 17.1484-17.0117 11.6992-17.0117C6.25977-17.0117 1.74805-12.5 1.74805-7.05078C1.74805-1.61133 6.26953 2.91016 11.709 2.91016ZM11.709 1.25C7.09961 1.25 3.41797-2.44141 3.41797-7.05078C3.41797-11.6602 7.08984-15.3516 11.6992-15.3516C16.3086-15.3516 20.0098-11.6602 20.0098-7.05078C20.0098-2.44141 16.3184 1.25 11.709 1.25ZM7.17773-7.05078C7.17773-6.57227 7.50977-6.25 8.00781-6.25L10.8789-6.25L10.8789-3.36914C10.8789-2.88086 11.2109-2.53906 11.6895-2.53906C12.1777-2.53906 12.5195-2.87109 12.5195-3.36914L12.5195-6.25L15.4004-6.25C15.8887-6.25 16.2305-6.57227 16.2305-7.05078C16.2305-7.53906 15.8887-7.88086 15.4004-7.88086L12.5195-7.88086L12.5195-10.752C12.5195-11.25 12.1777-11.5918 11.6895-11.5918C11.2109-11.5918 10.8789-11.25 10.8789-10.752L10.8789-7.88086L8.00781-7.88086C7.50977-7.88086 7.17773-7.53906 7.17773-7.05078Z"/>
  </g>
  <g transform="matrix(1 0 0 1 305.646 1933)">
   <path d="M14.9707 5.66406C21.9336 5.66406 27.6953-0.0976562 27.6953-7.05078C27.6953-14.0137 21.9238-19.7754 14.9609-19.7754C8.00781-19.7754 2.25586-14.0137 2.25586-7.05078C2.25586-0.0976562 8.01758 5.66406 14.9707 5.66406ZM14.9707 3.84766C8.93555 3.84766 4.08203-1.01562 4.08203-7.05078C4.08203-13.0957 8.92578-17.9492 14.9609-17.9492C21.0059-17.9492 25.8691-13.0957 25.8691-7.05078C25.8691-1.01562 21.0156 3.84766 14.9707 3.84766ZM9.19922-7.05078C9.19922-6.5332 9.57031-6.17188 10.1172-6.17188L14.0625-6.17188L14.0625-2.2168C14.0625-1.67969 14.4336-1.29883 14.9512-1.29883C15.4883-1.29883 15.8594-1.66992 15.8594-2.2168L15.8594-6.17188L19.8145-6.17188C20.3516-6.17188 20.7324-6.5332 20.7324-7.05078C20.7324-7.59766 20.3613-7.96875 19.8145-7.96875L15.8594-7.96875L15.8594-11.9141C15.8594-12.4609 15.4883-12.8418 14.9512-12.8418C14.4336-12.8418 14.0625-12.4609 14.0625-11.9141L14.0625-7.96875L10.1172-7.96875C9.57031-7.96875 9.19922-7.59766 9.19922-7.05078Z"/>
  </g>
  <text style="stroke:none;fill:black;font-family:sans-serif;font-size:13;font-weight:bold;" transform="matrix(1 0 0 1 263 1953)">Design Variations</text>
  <text style="stroke:none;fill:black;font-family:sans-serif;font-size:13;" transform="matrix(1 0 0 1 263 1971)">Symbols are supported in up to nine weights and three scales.</text>
  <text style="stroke:none;fill:black;font-family:sans-serif;font-size:13;" transform="matrix(1 0 0 1 263 1989)">For optimal layout with text and other symbols, vertically align</text>
  <text style="stroke:none;fill:black;font-family:sans-serif;font-size:13;" transform="matrix(1 0 0 1 263 2007)">symbols with the adjacent text.</text>
  <line style="fill:none;stroke:#00AEEF;stroke-width:0.5;opacity:1.0;" x1="776" x2="776" y1="1919" y2="1933"/>
  <g transform="matrix(1 0 0 1 776 1933)">
   <path d="M3.31055 0.15625C3.82812 0.15625 4.08203-0.0390625 4.26758-0.585938L5.52734-4.0332L11.2891-4.0332L12.5488-0.585938C12.7344-0.0390625 12.9883 0.15625 13.4961 0.15625C14.0137 0.15625 14.3457-0.15625 14.3457-0.644531C14.3457-0.810547 14.3164-0.966797 14.2383-1.17188L9.6582-13.3691C9.43359-13.9648 9.0332-14.2676 8.4082-14.2676C7.80273-14.2676 7.39258-13.9746 7.17773-13.3789L2.59766-1.16211C2.51953-0.957031 2.49023-0.800781 2.49023-0.634766C2.49023-0.146484 2.80273 0.15625 3.31055 0.15625ZM6.00586-5.51758L8.37891-12.0898L8.42773-12.0898L10.8008-5.51758Z"/>
  </g>
  <line style="fill:none;stroke:#00AEEF;stroke-width:0.5;opacity:1.0;" x1="793.197" x2="793.197" y1="1919" y2="1933"/>
  <text style="stroke:none;fill:black;font-family:sans-serif;font-size:13;font-weight:bold;" transform="matrix(1 0 0 1 776 1953)">Margins</text>
  <text style="stroke:none;fill:black;font-family:sans-serif;font-size:13;" transform="matrix(1 0 0 1 776 1971)">Leading and trailing margins on the left and right side of each symbol</text>
  <text style="stroke:none;fill:black;font-family:sans-serif;font-size:13;" transform="matrix(1 0 0 1 776 1989)">can be adjusted by modifying the x-location of the margin guidelines.</text>
  <text style="stroke:none;fill:black;font-family:sans-serif;font-size:13;" transform="matrix(1 0 0 1 776 2007)">Modifications are automatically applied proportionally to all</text>
  <text style="stroke:none;fill:black;font-family:sans-serif;font-size:13;" transform="matrix(1 0 0 1 776 2025)">scales and weights.</text>
  <g transform="matrix(1 0 0 1 1289 1933)">
   <path d="M2.8418 1.86523L4.54102 3.57422C5.40039 4.44336 6.38672 4.38477 7.31445 3.35938L18.0078-8.42773L17.041-9.4043L6.42578 2.27539C6.07422 2.67578 5.74219 2.77344 5.27344 2.30469L4.10156 1.14258C3.63281 0.683594 3.74023 0.341797 4.14062-0.0195312L15.6152-10.8203L14.6387-11.7871L3.04688-0.898438C2.06055 0.0195312 1.98242 0.996094 2.8418 1.86523ZM9.25781-16.3281C8.83789-15.918 8.80859-15.3418 9.04297-14.9512C9.27734-14.5898 9.73633-14.3555 10.3809-14.5215C11.8457-14.8633 13.3691-14.9219 14.7949-13.9844L14.209-12.5293C13.8672-11.6992 14.043-11.1133 14.5801-10.5664L16.875-8.25195C17.3633-7.76367 17.7734-7.74414 18.3398-7.8418L19.4043-8.03711L20.0684-7.36328L20.0293-6.80664C19.9902-6.30859 20.1172-5.92773 20.6055-5.44922L21.3672-4.70703C21.8457-4.22852 22.4609-4.19922 22.9297-4.66797L25.8398-7.58789C26.3086-8.05664 26.2891-8.65234 25.8105-9.13086L25.0391-9.89258C24.5605-10.3711 24.1895-10.5273 23.7109-10.4883L23.1348-10.4395L22.4902-11.0742L22.7344-12.1973C22.8613-12.7637 22.7051-13.2031 22.1191-13.7891L19.9219-15.9766C16.582-19.2969 12.1484-19.2188 9.25781-16.3281ZM10.752-15.957C13.1836-17.7344 16.4746-17.4316 18.7012-15.2051L21.1328-12.793C21.3672-12.5586 21.4062-12.373 21.3379-12.0312L21.0156-10.5469L22.5195-9.0625L23.5059-9.12109C23.7598-9.13086 23.8379-9.11133 24.0332-8.91602L24.6094-8.33984L22.168-5.89844L21.5918-6.47461C21.3965-6.66992 21.3672-6.74805 21.377-7.01172L21.4453-7.98828L19.9512-9.47266L18.4277-9.21875C18.1055-9.15039 17.959-9.17969 17.7148-9.41406L15.7129-11.416C15.459-11.6504 15.4297-11.8164 15.5859-12.1875L16.4648-14.2773C14.9023-15.7324 12.8711-16.3574 10.8398-15.7617C10.6836-15.7227 10.625-15.8496 10.752-15.957Z"/>
  </g>
  <text style="stroke:none;fill:black;font-family:sans-serif;font-size:13;font-weight:bold;" transform="matrix(1 0 0 1 1289 1953)">Exporting</text>
  <text style="stroke:none;fill:black;font-family:sans-serif;font-size:13;" transform="matrix(1 0 0 1 1289 1971)">Symbols should be outlined when exporting to ensure the</text>
  <text style="stroke:none;fill:black;font-family:sans-serif;font-size:13;" transform="matrix(1 0 0 1 1289 1989)">design is preserved when submitting to Xcode.</text>
  <text id="template-version" style="stroke:none;fill:black;font-family:sans-serif;font-size:13;text-anchor:end;" transform="matrix(1 0 0 1 3036 1933)">Template v.2.0</text>
  <text style="stroke:none;fill:black;font-family:sans-serif;font-size:13;text-anchor:end;" transform="matrix(1 0 0 1 3036 1951)">Requires Xcode 12 or greater</text>
  <text id="descriptive-name" style="stroke:none;fill:black;font-family:sans-serif;font-size:13;text-anchor:end;" transform="matrix(1 0 0 1 3036 1969)">Generated from sidebar.left</text>
  <text style="stroke:none;fill:black;font-family:sans-serif;font-size:13;text-anchor:end;" transform="matrix(1 0 0 1 3036 1987)">Typeset at 100 points</text>
  <text style="stroke:none;fill:black;font-family:sans-serif;font-size:13;" transform="matrix(1 0 0 1 263 726)">Small</text>
  <text style="stroke:none;fill:black;font-family:sans-serif;font-size:13;" transform="matrix(1 0 0 1 263 1156)">Medium</text>
  <text style="stroke:none;fill:black;font-family:sans-serif;font-size:13;" transform="matrix(1 0 0 1 263 1586)">Large</text>
 </g>
 <g id="Guides">
  <g id="H-reference" style="fill:#27AAE1;stroke:none;" transform="matrix(1 0 0 1 339 696)">
   <path d="M0.993654 0L3.63775 0L29.3281-67.1323L30.0303-67.1323L30.0303-70.459L28.1226-70.459ZM11.6885-24.4799L46.9815-24.4799L46.2315-26.7285L12.4385-26.7285ZM55.1196 0L57.7637 0L30.6382-70.459L29.4326-70.459L29.4326-67.1323Z"/>
  </g>
  <line id="Baseline-S" style="fill:none;stroke:#27AAE1;opacity:1;stroke-width:0.5;" x1="263" x2="3036" y1="696" y2="696"/>
  <line id="Capline-S" style="fill:none;stroke:#27AAE1;opacity:1;stroke-width:0.5;" x1="263" x2="3036" y1="625.541" y2="625.541"/>
  <g id="H-reference" style="fill:#27AAE1;stroke:none;" transform="matrix(1 0 0 1 339 1126)">
   <path d="M0.993654 0L3.63775 0L29.3281-67.1323L30.0303-67.1323L30.0303-70.459L28.1226-70.459ZM11.6885-24.4799L46.9815-24.4799L46.2315-26.7285L12.4385-26.7285ZM55.1196 0L57.7637 0L30.6382-70.459L29.4326-70.459L29.4326-67.1323Z"/>
  </g>
  <line id="Baseline-M" style="fill:none;stroke:#27AAE1;opacity:1;stroke-width:0.5;" x1="263" x2="3036" y1="1126" y2="1126"/>
  <line id="Capline-M" style="fill:none;stroke:#27AAE1;opacity:1;stroke-width:0.5;" x1="263" x2="3036" y1="1055.54" y2="1055.54"/>
  <g id="H-reference" style="fill:#27AAE1;stroke:none;" transform="matrix(1 0 0 1 339 1556)">
   <path d="M0.993654 0L3.63775 0L29.3281-67.1323L30.0303-67.1323L30.0303-70.459L28.1226-70.459ZM11.6885-24.4799L46.9815-24.4799L46.2315-26.7285L12.4385-26.7285ZM55.1196 0L57.7637 0L30.6382-70.459L29.4326-70.459L29.4326-67.1323Z"/>
  </g>
  <line id="Baseline-L" style="fill:none;stroke:#27AAE1;opacity:1;stroke-width:0.5;" x1="263" x2="3036" y1="1556" y2="1556"/>
  <line id="Capline-L" style="fill:none;stroke:#27AAE1;opacity:1;stroke-width:0.5;" x1="263" x2="3036" y1="1485.54" y2="1485.54"/>
  <line id="left-margin" style="fill:none;stroke:#00AEEF;stroke-width:0.5;opacity:1.0;" x1="1379.84" x2="1379.84" y1="1030.79" y2="1150.12"/>
  <line id="right-margin" style="fill:none;stroke:#00AEEF;stroke-width:0.5;opacity:1.0;" x1="1519.85" x2="1519.85" y1="1030.79" y2="1150.12"/>
 </g>
 <g id="Symbols">
  <g id="Black-L" transform="matrix(1 0 0 1 2841.56 1556)">
   <path d="M39.8556 26.4225L143.831 26.4225C158.995 26.4225 167.603 17.8126 167.603 2.71334L167.603-73.0895C167.603-88.1888 158.995-96.7987 143.831-96.7987L39.8556-96.7987C24.7123-96.7987 16.084-88.1912 16.084-73.0895L16.084 2.71334C16.084 17.815 24.7123 26.4225 39.8556 26.4225ZM42.5864 6.42071C38.2704 6.42071 36.065 4.51135 36.065-0.121475L36.065-70.2547C36.065-74.8667 38.2704-76.7969 42.5864-76.7969L141.1-76.7969C145.411-76.7969 147.622-74.8667 147.622-70.2547L147.622-0.121475C147.622 4.51135 145.411 6.42071 141.1 6.42071ZM73.264 8.59133L91.4304 8.59133L91.4304-79.6179L73.264-79.6179ZM60.1301-54.7553C63.51-54.7553 66.1594-57.3683 66.1594-60.4342C66.1594-63.4988 63.51-66.1286 60.1301-66.1286L49.2406-66.1286C45.8814-66.1286 43.2308-63.4988 43.2308-60.4342C43.2308-57.3683 45.8814-54.7553 49.2406-54.7553ZM60.1301-36.0238C63.51-36.0238 66.1594-38.616 66.1594-41.7015C66.1594-44.7674 63.51-47.3388 60.1301-47.3388L49.2406-47.3388C45.8814-47.3388 43.2308-44.7674 43.2308-41.7015C43.2308-38.616 45.8814-36.0238 49.2406-36.0238ZM60.1301-17.2352C63.51-17.2352 66.1594-19.8846 66.1594-22.9505C66.1594-26.0164 63.51-28.5866 60.1301-28.5866L49.2406-28.5866C45.8814-28.5866 43.2308-26.0164 43.2308-22.9505C43.2308-19.8846 45.8814-17.2352 49.2406-17.2352Z"/>
  </g>
  <g id="Heavy-L" transform="matrix(1 0 0 1 2545.23 1556)">
   <path d="M38.8315 25.5159L144.087 25.5159C158.73 25.5159 166.834 17.4 166.834 2.85894L166.834-73.2263C166.834-87.7674 158.73-95.8832 144.087-95.8832L38.8315-95.8832C24.2188-95.8832 16.084-87.7786 16.084-73.2263L16.084 2.85894C16.084 17.4112 24.2188 25.5159 38.8315 25.5159ZM40.9557 7.98528C36.118 7.98528 33.5844 5.72074 33.5844 0.583786L33.5844-70.9511C33.5844-76.0579 36.118-78.3526 40.9557-78.3526L141.963-78.3526C146.778-78.3526 149.334-76.0579 149.334-70.9511L149.334 0.583786C149.334 5.72074 146.778 7.98528 141.963 7.98528ZM71.0169 10.0858L87.0881 10.0858L87.0881-80.9542L71.0169-80.9542ZM58.1261-55.9901C61.1504-55.9901 63.5405-58.3714 63.5405-61.1367C63.5405-63.8964 61.1504-66.2621 58.1261-66.2621L46.5355-66.2621C43.5415-66.2621 41.1457-63.8964 41.1457-61.1367C41.1457-58.3714 43.5415-55.9901 46.5355-55.9901ZM58.1261-37.8083C61.1504-37.8083 63.5405-40.1594 63.5405-42.9493C63.5405-45.7146 61.1504-48.0356 58.1261-48.0356L46.5355-48.0356C43.5415-48.0356 41.1457-45.7146 41.1457-42.9493C41.1457-40.1594 43.5415-37.8083 46.5355-37.8083ZM58.1261-19.5875C61.1504-19.5875 63.5405-21.9776 63.5405-24.7429C63.5405-27.5083 61.1504-29.8236 58.1261-29.8236L46.5355-29.8236C43.5415-29.8236 41.1457-27.5083 41.1457-24.7429C41.1457-21.9776 43.5415-19.5875 46.5355-19.5875Z"/>
  </g>
  <g id="Bold-L" transform="matrix(1 0 0 1 2249.01 1556)">
   <path d="M37.5412 24.3865L144.394 24.3865C158.347 24.3865 165.852 16.8555 165.852 3.04324L165.852-73.3953C165.852-87.2076 158.347-94.7386 144.394-94.7386L37.5412-94.7386C23.6265-94.7386 16.084-87.2341 16.084-73.3953L16.084 3.04324C16.084 16.882 23.6265 24.3865 37.5412 24.3865ZM38.987 9.90678C33.4665 9.90678 30.5257 7.19674 30.5257 1.40752L30.5257-71.7596C30.5257-77.5109 33.4665-80.2589 38.987-80.2589L142.949-80.2589C148.416-80.2589 151.41-77.5109 151.41-71.7596L151.41 1.40752C151.41 7.19674 148.416 9.90678 142.949 9.90678ZM68.3694 11.878L81.8211 11.878L81.8211-82.5988L68.3694-82.5988ZM55.756-57.5267C58.3422-57.5267 60.4022-59.6087 60.4022-61.9976C60.4022-64.3733 58.3422-66.4086 55.756-66.4086L43.2151-66.4086C40.6669-66.4086 38.5937-64.3733 38.5937-61.9976C38.5937-59.6087 40.6669-57.5267 43.2151-57.5267ZM55.756-39.9168C58.3422-39.9168 60.4022-41.9609 60.4022-44.3746C60.4022-46.7635 58.3422-48.7696 55.756-48.7696L43.2151-48.7696C40.6669-48.7696 38.5937-46.7635 38.5937-44.3746C38.5937-41.9609 40.6669-39.9168 43.2151-39.9168ZM55.756-22.2911C58.3422-22.2911 60.4022-24.3511 60.4022-26.74C60.4022-29.1289 58.3422-31.1218 55.756-31.1218L43.2151-31.1218C40.6669-31.1218 38.5937-29.1289 38.5937-26.74C38.5937-24.3511 40.6669-22.2911 43.2151-22.2911Z"/>
  </g>
  <g id="Semibold-L" transform="matrix(1 0 0 1 1952.64 1556)">
   <path d="M36.6517 23.608L144.607 23.608C158.083 23.608 165.174 16.4801 165.174 3.17029L165.174-73.5119C165.174-86.8217 158.083-93.9496 144.607-93.9496L36.6517-93.9496C23.2182-93.9496 16.084-86.8587 16.084-73.5119L16.084 3.17029C16.084 16.5171 23.2182 23.608 36.6517 23.608ZM37.6298 11.2314C31.6387 11.2314 28.4171 8.21429 28.4171 1.97539L28.4171-72.317C28.4171-78.5125 31.6387-81.573 37.6298-81.573L143.628-81.573C149.546-81.573 152.841-78.5125 152.841-72.317L152.841 1.97539C152.841 8.21429 149.546 11.2314 143.628 11.2314ZM66.5442 13.1135L78.1901 13.1135L78.1901-83.7327L66.5442-83.7327ZM54.122-58.586C56.4062-58.586 58.2387-60.4617 58.2387-62.5911C58.2387-64.7021 56.4062-66.5097 54.122-66.5097L40.926-66.5097C38.6853-66.5097 36.8343-64.7021 36.8343-62.5911C36.8343-60.4617 38.6853-58.586 40.926-58.586ZM54.122-41.3705C56.4062-41.3705 58.2387-43.2028 58.2387-45.3572C58.2387-47.4866 56.4062-49.2756 54.122-49.2756L40.926-49.2756C38.6853-49.2756 36.8343-47.4866 36.8343-45.3572C36.8343-43.2028 38.6853-41.3705 40.926-41.3705ZM54.122-24.1549C56.4062-24.1549 58.2387-25.9874 58.2387-28.1168C58.2387-30.2462 56.4062-32.0168 54.122-32.0168L40.926-32.0168C38.6853-32.0168 36.8343-30.2462 36.8343-28.1168C36.8343-25.9874 38.6853-24.1549 40.926-24.1549Z"/>
  </g>
  <g id="Medium-L" transform="matrix(1 0 0 1 1656.18 1556)">
   <path d="M35.9773 23.0176L144.767 23.0176C157.883 23.0176 164.661 16.1955 164.661 3.26662L164.661-73.6003C164.661-86.5291 157.883-93.3513 144.767-93.3513L35.9773-93.3513C22.9086-93.3513 16.084-86.574 16.084-73.6003L16.084 3.26662C16.084 16.2404 22.9086 23.0176 35.9773 23.0176ZM36.6007 12.2359C30.2527 12.2359 26.8183 8.98584 26.8183 2.40598L26.8183-72.7396C26.8183-79.272 30.2527-82.5695 36.6007-82.5695L144.144-82.5695C150.402-82.5695 153.926-79.272 153.926-72.7396L153.926 2.40598C153.926 8.98584 150.402 12.2359 144.144 12.2359ZM65.1603 14.0503L75.4369 14.0503L75.4369-84.5924L65.1603-84.5924ZM52.8831-59.3892C54.9383-59.3892 56.5982-61.1085 56.5982-63.0411C56.5982-64.9514 54.9383-66.5863 52.8831-66.5863L39.1904-66.5863C37.1827-66.5863 35.5003-64.9514 35.5003-63.0411C35.5003-61.1085 37.1827-59.3892 39.1904-59.3892ZM52.8831-42.4727C54.9383-42.4727 56.5982-44.1445 56.5982-46.1022C56.5982-48.0349 54.9383-49.6593 52.8831-49.6593L39.1904-49.6593C37.1827-49.6593 35.5003-48.0349 35.5003-46.1022C35.5003-44.1445 37.1827-42.4727 39.1904-42.4727ZM52.8831-25.5681C54.9383-25.5681 56.5982-27.228 56.5982-29.1607C56.5982-31.0934 54.9383-32.6954 52.8831-32.6954L39.1904-32.6954C37.1827-32.6954 35.5003-31.0934 35.5003-29.1607C35.5003-27.228 37.1827-25.5681 39.1904-25.5681Z"/>
  </g>
  <g id="Regular-L" transform="matrix(1 0 0 1 1359.81 1556)">
   <path d="M35.0976 22.2476L144.977 22.2476C157.623 22.2476 163.991 15.8242 163.991 3.39227L163.991-73.7155C163.991-86.1475 157.623-92.5709 144.977-92.5709L35.0976-92.5709C22.5048-92.5709 16.084-86.2028 16.084-73.7155L16.084 3.39227C16.084 15.8795 22.5048 22.2476 35.0976 22.2476ZM35.2584 13.546C28.4449 13.546 24.7328 9.9922 24.7328 2.96762L24.7328-73.2909C24.7328-80.2627 28.4449-83.8692 35.2584-83.8692L144.816-83.8692C151.519-83.8692 155.342-80.2627 155.342-73.2909L155.342 2.96762C155.342 9.9922 151.519 13.546 144.816 13.546ZM63.3552 15.2723L71.8458 15.2723L71.8458-85.7138L63.3552-85.7138ZM51.2671-60.4368C53.0236-60.4368 54.4584-61.9521 54.4584-63.6281C54.4584-65.2765 53.0236-66.6862 51.2671-66.6862L36.9265-66.6862C35.2227-66.6862 33.7603-65.2765 33.7603-63.6281C33.7603-61.9521 35.2227-60.4368 36.9265-60.4368ZM51.2671-43.9103C53.0236-43.9103 54.4584-45.3728 54.4584-47.074C54.4584-48.75 53.0236-50.1597 51.2671-50.1597L36.9265-50.1597C35.2227-50.1597 33.7603-48.75 33.7603-47.074C33.7603-45.3728 35.2227-43.9103 36.9265-43.9103ZM51.2671-27.4115C53.0236-27.4115 54.4584-28.8463 54.4584-30.5224C54.4584-32.1984 53.0236-33.5805 51.2671-33.5805L36.9265-33.5805C35.2227-33.5805 33.7603-32.1984 33.7603-30.5224C33.7603-28.8463 35.2227-27.4115 36.9265-27.4115Z"/>
  </g>
  <g id="Light-L" transform="matrix(1 0 0 1 1063.53 1556)">
   <path d="M34.067 21.4269L145.13 21.4269C157.012 21.4269 163.113 15.2326 163.113 3.54496L163.113-73.83C163.113-85.5176 157.012-91.712 145.13-91.712L34.067-91.712C22.2185-91.712 16.084-85.6111 16.084-73.83L16.084 3.54496C16.084 15.3261 22.2185 21.4269 34.067 21.4269ZM34.2278 14.7674C26.7082 14.7674 22.7098 10.8701 22.7098 3.21573L22.7098-73.5008C22.7098-81.1215 26.7082-85.0525 34.2278-85.0525L144.969-85.0525C152.302-85.0525 156.487-81.1215 156.487-73.5008L156.487 3.21573C156.487 10.8701 152.302 14.7674 144.969 14.7674ZM62.4009 16.1311L68.9257 16.1311L68.9257-86.7826L62.4009-86.7826ZM50.351-61.5438C51.8212-61.5438 52.9698-62.7727 52.9698-64.1625C52.9698-65.5056 51.8212-66.6671 50.351-66.6671L34.8271-66.6671C33.3906-66.6671 32.1953-65.5056 32.1953-64.1625C32.1953-62.7727 33.3906-61.5438 34.8271-61.5438ZM50.351-44.7119C51.8212-44.7119 52.9698-45.9072 52.9698-47.2839C52.9698-48.6737 51.8212-49.8353 50.351-49.8353L34.8271-49.8353C33.3906-49.8353 32.1953-48.6737 32.1953-47.2839C32.1953-45.9072 33.3906-44.7119 34.8271-44.7119ZM50.351-27.9268C51.8212-27.9268 52.9698-29.0753 52.9698-30.4651C52.9698-31.8549 51.8212-32.9698 50.351-32.9698L34.8271-32.9698C33.3906-32.9698 32.1953-31.8549 32.1953-30.4651C32.1953-29.0753 33.3906-27.9268 34.8271-27.9268Z"/>
  </g>
  <g id="Thin-L" transform="matrix(1 0 0 1 767.404 1556)">
   <path d="M32.7039 20.3415L145.332 20.3415C156.204 20.3415 161.952 14.4501 161.952 3.74689L161.952-73.9815C161.952-84.6847 156.204-90.5761 145.332-90.5761L32.7039-90.5761C21.8399-90.5761 16.084-84.8286 16.084-73.9815L16.084 3.74689C16.084 14.594 21.8399 20.3415 32.7039 20.3415ZM32.8648 16.3829C24.4111 16.3829 20.0342 12.0312 20.0342 3.54387L20.0342-73.7785C20.0342-82.2574 24.4111-86.6175 32.8648-86.6175L145.171-86.6175C153.337-86.6175 158.001-82.2574 158.001-73.7785L158.001 3.54387C158.001 12.0312 153.337 16.3829 145.171 16.3829ZM61.1388 17.267L65.0637 17.267L65.0637-88.1961L61.1388-88.1961ZM49.1394-63.0078C50.231-63.0078 51.0009-63.8581 51.0009-64.8693C51.0009-65.8085 50.231-66.6419 49.1394-66.6419L32.0505-66.6419C30.9673-66.6419 30.1255-65.8085 30.1255-64.8693C30.1255-63.8581 30.9673-63.0078 32.0505-63.0078ZM49.1394-45.7721C50.231-45.7721 51.0009-46.614 51.0009-47.5616C51.0009-48.5727 50.231-49.4062 49.1394-49.4062L32.0505-49.4062C30.9673-49.4062 30.1255-48.5727 30.1255-47.5616C30.1255-46.614 30.9673-45.7721 32.0505-45.7721ZM49.1394-28.6083C50.231-28.6083 51.0009-29.3782 51.0009-30.3894C51.0009-31.4006 50.231-32.162 49.1394-32.162L32.0505-32.162C30.9673-32.162 30.1255-31.4006 30.1255-30.3894C30.1255-29.3782 30.9673-28.6083 32.0505-28.6083Z"/>
  </g>
  <g id="Ultralight-L" transform="matrix(1 0 0 1 470.991 1556)">
   <path d="M32.0058 19.7856L145.435 19.7856C155.79 19.7856 161.357 14.0493 161.357 3.85032L161.357-74.0591C161.357-84.258 155.79-89.9943 145.435-89.9943L32.0058-89.9943C21.646-89.9943 16.084-84.4278 16.084-74.0591L16.084 3.85032C16.084 14.2191 21.646 19.7856 32.0058 19.7856ZM32.1666 17.2104C23.2346 17.2104 18.6637 12.626 18.6637 3.71194L18.6637-73.9207C18.6637-82.8392 23.2346-87.4191 32.1666-87.4191L145.274-87.4191C153.867-87.4191 158.777-82.8392 158.777-73.9207L158.777 3.71194C158.777 12.626 153.867 17.2104 145.274 17.2104ZM60.4924 17.8488L63.0856 17.8488L63.0856-88.9201L60.4924-88.9201ZM48.5188-63.7577C49.4165-63.7577 49.9924-64.4141 49.9924-65.2313C49.9924-65.9636 49.4165-66.629 48.5188-66.629L30.6283-66.629C29.7262-66.629 29.0653-65.9636 29.0653-65.2313C29.0653-64.4141 29.7262-63.7577 30.6283-63.7577ZM48.5188-46.3151C49.4165-46.3151 49.9924-46.976 49.9924-47.7038C49.9924-48.521 49.4165-49.1864 48.5188-49.1864L30.6283-49.1864C29.7262-49.1864 29.0653-48.521 29.0653-47.7038C29.0653-46.976 29.7262-46.3151 30.6283-46.3151ZM48.5188-28.9574C49.4165-28.9574 49.9924-29.5334 49.9924-30.3506C49.9924-31.1678 49.4165-31.7483 48.5188-31.7483L30.6283-31.7483C29.7262-31.7483 29.0653-31.1678 29.0653-30.3506C29.0653-29.5334 29.7262-28.9574 30.6283-28.9574Z"/>
  </g>
  <g id="Black-M" transform="matrix(1 0 0 1 2861.97 1126)">
   <path d="M31.6184 13.203L111.233 13.203C123.325 13.203 130.39 6.13889 130.39-5.93804L130.39-64.4592C130.39-76.5361 123.325-83.6002 111.233-83.6002L31.6184-83.6002C19.5311-83.6002 12.4609-76.5356 12.4609-64.4592L12.4609-5.93804C12.4609 6.13832 19.5311 13.203 31.6184 13.203ZM34.2553-4.14048C31.2643-4.14048 29.7989-5.36104 29.7989-8.60235L29.7989-61.7949C29.7989-65.0307 31.2643-66.2568 34.2553-66.2568L108.596-66.2568C111.588-66.2568 113.052-65.0307 113.052-61.7949L113.052-8.60235C113.052-5.36104 111.588-4.14048 108.596-4.14048ZM58.5626-2.44767L74.1712-2.44767L74.1712-68.6154L58.5626-68.6154ZM48.1834-49.4457C51.0689-49.4457 53.3055-51.6304 53.3055-54.2252C53.3055-56.8203 51.0689-59.0511 48.1834-59.0511L40.1891-59.0511C37.3091-59.0511 35.0728-56.8203 35.0728-54.2252C35.0728-51.6304 37.3091-49.4457 40.1891-49.4457ZM48.1834-34.4199C51.0689-34.4199 53.3055-36.5991 53.3055-39.1997C53.3055-41.7945 51.0689-43.9683 48.1834-43.9683L40.1891-43.9683C37.3091-43.9683 35.0728-41.7945 35.0728-39.1997C35.0728-36.5991 37.3091-34.4199 40.1891-34.4199ZM48.1834-19.3368C51.0689-19.3368 53.3055-21.5734 53.3055-24.1682C53.3055-26.763 51.0689-28.937 48.1834-28.937L40.1891-28.937C37.3091-28.937 35.0728-26.763 35.0728-24.1682C35.0728-21.5734 37.3091-19.3368 40.1891-19.3368Z"/>
  </g>
  <g id="Heavy-M" transform="matrix(1 0 0 1 2565.6 1126)">
   <path d="M30.7123 12.3923L111.469 12.3923C123.122 12.3923 129.72 5.79013 129.72-5.80979L129.72-64.5823C129.72-76.1823 123.122-82.7845 111.469-82.7845L30.7123-82.7845C19.075-82.7845 12.4609-76.1868 12.4609-64.5823L12.4609-5.80979C12.4609 5.79468 19.075 12.3923 30.7123 12.3923ZM32.7562-2.72369C29.3203-2.72369 27.5605-4.25976 27.5605-7.93579L27.5605-62.4563C27.5605-66.116 29.3203-67.6684 32.7562-67.6684L109.425-67.6684C112.852-67.6684 114.62-66.116 114.62-62.4563L114.62-7.93579C114.62-4.25976 112.852-2.72369 109.425-2.72369ZM56.454-1.06598L70.1957-1.06598L70.1957-69.8231L56.454-69.8231ZM46.3089-50.5507C48.8731-50.5507 50.8827-52.5353 50.8827-54.8627C50.8827-57.1878 48.8731-59.1833 46.3089-59.1833L37.7384-59.1833C35.1906-59.1833 33.1788-57.1878 33.1788-54.8627C33.1788-52.5353 35.1906-50.5507 37.7384-50.5507ZM46.3089-36.0904C48.8731-36.0904 50.8827-38.0586 50.8827-40.4001C50.8827-42.7275 48.8731-44.6794 46.3089-44.6794L37.7384-44.6794C35.1906-44.6794 33.1788-42.7275 33.1788-40.4001C33.1788-38.0586 35.1906-36.0904 37.7384-36.0904ZM46.3089-21.5887C48.8731-21.5887 50.8827-23.5983 50.8827-25.9257C50.8827-28.2531 48.8731-30.2027 46.3089-30.2027L37.7384-30.2027C35.1906-30.2027 33.1788-28.2531 33.1788-25.9257C33.1788-23.5983 35.1906-21.5887 37.7384-21.5887Z"/>
  </g>
  <g id="Bold-M" transform="matrix(1 0 0 1 2269.26 1126)">
   <path d="M29.6986 11.4855L111.733 11.4855C122.895 11.4855 128.97 5.39999 128.97-5.66632L128.97-64.7201C128.97-75.7864 122.895-81.8719 111.733-81.8719L29.6986-81.8719C18.5648-81.8719 12.4609-75.7967 12.4609-64.7201L12.4609-5.66632C12.4609 5.41026 18.5648 11.4855 29.6986 11.4855ZM31.0794-1.13881C27.1457-1.13881 25.0566-3.02783 25.0566-7.19016L25.0566-63.1963C25.0566-67.33 27.1457-69.2476 31.0794-69.2476L110.352-69.2476C114.265-69.2476 116.375-67.33 116.375-63.1963L116.375-7.19016C116.375-3.02783 114.265-1.13881 110.352-1.13881ZM54.0952 0.47963L65.7485 0.47963L65.7485-71.1741L54.0952-71.1741ZM44.2121-51.7868C46.4168-51.7868 48.1725-53.5476 48.1725-55.5759C48.1725-57.599 46.4168-59.3312 44.2121-59.3312L34.9969-59.3312C32.8208-59.3312 31.06-57.599 31.06-55.5759C31.06-53.5476 32.8208-51.7868 34.9969-51.7868ZM44.2121-37.959C46.4168-37.959 48.1725-39.6913 48.1725-41.743C48.1725-43.7712 46.4168-45.4749 44.2121-45.4749L34.9969-45.4749C32.8208-45.4749 31.06-43.7712 31.06-41.743C31.06-39.6913 32.8208-37.959 34.9969-37.959ZM44.2121-24.1079C46.4168-24.1079 48.1725-25.8635 48.1725-27.8918C48.1725-29.92 46.4168-31.6185 44.2121-31.6185L34.9969-31.6185C32.8208-31.6185 31.06-29.92 31.06-27.8918C31.06-25.8635 32.8208-24.1079 34.9969-24.1079Z"/>
  </g>
  <g id="Semibold-M" transform="matrix(1 0 0 1 1972.81 1126)">
   <path d="M28.9998 10.8604L111.915 10.8604C122.739 10.8604 128.454 5.13104 128.454-5.56741L128.454-64.8151C128.454-75.5135 122.739-81.2428 111.915-81.2428L28.9998-81.2428C18.2131-81.2428 12.4609-75.5277 12.4609-64.8151L12.4609-5.56741C12.4609 5.14525 18.2131 10.8604 28.9998 10.8604ZM29.9233-0.0461991C25.6466-0.0461991 23.3305-2.17855 23.3305-6.67612L23.3305-63.7063C23.3305-68.1669 25.6466-70.3363 29.9233-70.3363L110.991-70.3363C115.24-70.3363 117.584-68.1669 117.584-63.7063L117.584-6.67612C117.584-2.17855 115.24-0.0461991 110.991-0.0461991ZM52.469 1.54517L62.6827 1.54517L62.6827-72.1054L52.469-72.1054ZM42.7666-52.6389C44.7235-52.6389 46.3041-54.2455 46.3041-56.0675C46.3041-57.8824 44.7235-59.4331 42.7666-59.4331L33.107-59.4331C31.1871-59.4331 29.5994-57.8824 29.5994-56.0675C29.5994-54.2455 31.1871-52.6389 33.107-52.6389ZM42.7666-39.2473C44.7235-39.2473 46.3041-40.8168 46.3041-42.6688C46.3041-44.4907 44.7235-46.0233 42.7666-46.0233L33.107-46.0233C31.1871-46.0233 29.5994-44.4907 29.5994-42.6688C29.5994-40.8168 31.1871-39.2473 33.107-39.2473ZM42.7666-25.8445C44.7235-25.8445 46.3041-27.4251 46.3041-29.2471C46.3041-31.0691 44.7235-32.5945 42.7666-32.5945L33.107-32.5945C31.1871-32.5945 29.5994-31.0691 29.5994-29.2471C29.5994-27.4251 31.1871-25.8445 33.107-25.8445Z"/>
  </g>
  <g id="Medium-M" transform="matrix(1 0 0 1 1676.29 1126)">
   <path d="M28.47 10.3864L112.053 10.3864C122.62 10.3864 128.062 4.9271 128.062-5.49242L128.062-64.8871C128.062-75.3066 122.62-80.7658 112.053-80.7658L28.47-80.7658C17.9464-80.7658 12.4609-75.3238 12.4609-64.8871L12.4609-5.49242C12.4609 4.9443 17.9464 10.3864 28.47 10.3864ZM29.0468 0.782262C24.5098 0.782262 22.0216-1.53459 22.0216-6.28636L22.0216-64.0931C22.0216-68.8015 24.5098-71.1617 29.0468-71.1617L111.476-71.1617C115.979-71.1617 118.501-68.8015 118.501-64.0931L118.501-6.28636C118.501-1.53459 115.979 0.782262 111.476 0.782262ZM51.236 2.3531L60.3581 2.3531L60.3581-72.8116L51.236-72.8116ZM41.6705-53.2851C43.4395-53.2851 44.8874-54.7747 44.8874-56.4403C44.8874-58.0974 43.4395-59.5104 41.6705-59.5104L31.674-59.5104C29.9484-59.5104 28.4919-58.0974 28.4919-56.4403C28.4919-54.7747 29.9484-53.2851 31.674-53.2851ZM41.6705-40.224C43.4395-40.224 44.8874-41.6702 44.8874-43.3707C44.8874-45.0363 43.4395-46.4391 41.6705-46.4391L31.674-46.4391C29.9484-46.4391 28.4919-45.0363 28.4919-43.3707C28.4919-41.6702 29.9484-40.224 31.674-40.224ZM41.6705-27.1613C43.4395-27.1613 44.8874-28.6092 44.8874-30.2748C44.8874-31.9405 43.4395-33.3346 41.6705-33.3346L31.674-33.3346C29.9484-33.3346 28.4919-31.9405 28.4919-30.2748C28.4919-28.6092 29.9484-27.1613 31.674-27.1613Z"/>
  </g>
  <g id="Regular-M" transform="matrix(1 0 0 1 1379.84 1126)">
   <path d="M27.7789 9.76808L112.233 9.76808C122.465 9.76808 127.551 4.6611 127.551-5.3946L127.551-64.981C127.551-75.0367 122.465-80.1437 112.233-80.1437L27.7789-80.1437C17.5986-80.1437 12.4609-75.0578 12.4609-64.981L12.4609-5.3946C12.4609 4.6822 17.5986 9.76808 27.7789 9.76808ZM27.9035 1.86286C23.0272 1.86286 20.3144-0.694633 20.3144-5.77797L20.3144-64.5976C20.3144-69.6292 23.0272-72.2384 27.9035-72.2384L112.108-72.2384C116.942-72.2384 119.697-69.6292 119.697-64.5976L119.697-5.77797C119.697-0.694633 116.942 1.86286 112.108 1.86286ZM49.6277 3.40693L57.3259 3.40693L57.3259-73.7328L49.6277-73.7328ZM40.2408-54.1279C41.7648-54.1279 43.0395-55.4649 43.0395-56.9266C43.0395-58.3777 41.7648-59.6112 40.2408-59.6112L29.8048-59.6112C28.3326-59.6112 27.0473-58.3777 27.0473-56.9266C27.0473-55.4649 28.3326-54.1279 29.8048-54.1279ZM40.2408-41.4981C41.7648-41.4981 43.0395-42.7834 43.0395-44.2863C43.0395-45.7479 41.7648-46.9815 40.2408-46.9815L29.8048-46.9815C28.3326-46.9815 27.0473-45.7479 27.0473-44.2863C27.0473-42.7834 28.3326-41.4981 29.8048-41.4981ZM40.2408-28.8789C41.7648-28.8789 43.0395-30.1537 43.0395-31.6153C43.0395-33.077 41.7648-34.3 40.2408-34.3L29.8048-34.3C28.3326-34.3 27.0473-33.077 27.0473-31.6153C27.0473-30.1537 28.3326-28.8789 29.8048-28.8789Z"/>
  </g>
  <g id="Light-M" transform="matrix(1 0 0 1 1083.52 1126)">
   <path d="M26.8549 9.03231L112.37 9.03231C121.917 9.03231 126.764 4.13066 126.764-5.25771L126.764-65.0836C126.764-74.472 121.917-79.3737 112.37-79.3737L26.8549-79.3737C17.3419-79.3737 12.4609-74.5273 12.4609-65.0836L12.4609-5.25771C12.4609 4.18599 17.3419 9.03231 26.8549 9.03231ZM26.9795 2.95796C21.4701 2.95796 18.5006 0.0924704 18.5006-5.55553L18.5006-64.7858C18.5006-70.3992 21.4701-73.2993 26.9795-73.2993L112.245-73.2993C117.644-73.2993 120.724-70.3992 120.724-64.7858L120.724-5.55553C120.724 0.0924704 117.644 2.95796 112.245 2.95796ZM48.7722 4.17692L54.708 4.17692L54.708-74.691L48.7722-74.691ZM39.4195-55.1203C40.6868-55.1203 41.7049-56.2007 41.7049-57.4057C41.7049-58.583 40.6868-59.5941 39.4195-59.5941L27.9226-59.5941C26.69-59.5941 25.6442-58.583 25.6442-57.4057C25.6442-56.2007 26.69-55.1203 27.9226-55.1203ZM39.4195-42.2168C40.6868-42.2168 41.7049-43.2625 41.7049-44.4745C41.7049-45.6795 40.6868-46.6906 39.4195-46.6906L27.9226-46.6906C26.69-46.6906 25.6442-45.6795 25.6442-44.4745C25.6442-43.2625 26.69-42.2168 27.9226-42.2168ZM39.4195-29.3409C40.6868-29.3409 41.7049-30.359 41.7049-31.564C41.7049-32.769 40.6868-33.7524 39.4195-33.7524L27.9226-33.7524C26.69-33.7524 25.6442-32.769 25.6442-31.564C25.6442-30.359 26.69-29.3409 27.9226-29.3409Z"/>
  </g>
  <g id="Thin-M" transform="matrix(1 0 0 1 787.33 1126)">
   <path d="M25.6328 8.0592L112.551 8.0592C121.193 8.0592 125.723 3.42911 125.723-5.07666L125.723-65.2194C125.723-73.7252 121.193-78.3553 112.551-78.3553L25.6328-78.3553C17.0024-78.3553 12.4609-73.8258 12.4609-65.2194L12.4609-5.07666C12.4609 3.5297 17.0024 8.0592 25.6328 8.0592ZM25.7574 4.40632C19.4107 4.40632 16.1018 1.13348 16.1018-5.26133L16.1018-65.0348C16.1018-71.4176 19.4107-74.7024 25.7574-74.7024L112.426-74.7024C118.572-74.7024 122.082-71.4176 122.082-65.0348L122.082-5.26133C122.082 1.13348 118.572 4.40632 112.426 4.40632ZM47.6406 5.19529L51.2455 5.19529L51.2455-75.9583L47.6406-75.9583ZM38.3332-56.4329C39.2611-56.4329 39.9397-57.1738 39.9397-58.0393C39.9397-58.8546 39.2611-59.5715 38.3332-59.5715L25.4332-59.5715C24.5174-59.5715 23.7885-58.8546 23.7885-58.0393C23.7885-57.1738 24.5174-56.4329 25.4332-56.4329ZM38.3332-43.1673C39.2611-43.1673 39.9397-43.8962 39.9397-44.7234C39.9397-45.589 39.2611-46.3059 38.3332-46.3059L25.4332-46.3059C24.5174-46.3059 23.7885-45.589 23.7885-44.7234C23.7885-43.8962 24.5174-43.1673 25.4332-43.1673ZM38.3332-29.9519C39.2611-29.9519 39.9397-30.6306 39.9397-31.4961C39.9397-32.3616 39.2611-33.0282 38.3332-33.0282L25.4332-33.0282C24.5174-33.0282 23.7885-32.3616 23.7885-31.4961C23.7885-30.6306 24.5174-29.9519 25.4332-29.9519Z"/>
  </g>
  <g id="Ultralight-M" transform="matrix(1 0 0 1 490.886 1126)">
   <path d="M25.0069 7.56077L112.644 7.56077C120.822 7.56077 125.189 3.06978 125.189-4.98393L125.189-65.289C125.189-73.3427 120.822-77.8337 112.644-77.8337L25.0069-77.8337C16.8286-77.8337 12.4609-73.4665 12.4609-65.289L12.4609-4.98393C12.4609 3.19355 16.8286 7.56077 25.0069 7.56077ZM25.1315 5.14816C18.3559 5.14816 14.8731 1.66668 14.8731-5.11065L14.8731-65.1623C14.8731-71.9392 18.3559-75.4211 25.1315-75.4211L112.519-75.4211C119.047-75.4211 122.777-71.9392 122.777-65.1623L122.777-5.11065C122.777 1.66668 119.047 5.14816 112.519 5.14816ZM47.0611 5.7169L49.472 5.7169L49.472-76.6074L47.0611-76.6074ZM37.7768-57.1052C38.5308-57.1052 39.0356-57.6722 39.0356-58.3639C39.0356-58.9937 38.5308-59.5599 37.7768-59.5599L24.1582-59.5599C23.4047-59.5599 22.838-58.9937 22.838-58.3639C22.838-57.6722 23.4047-57.1052 24.1582-57.1052ZM37.7768-43.6541C38.5308-43.6541 39.0356-44.2207 39.0356-44.8509C39.0356-45.5426 38.5308-46.1088 37.7768-46.1088L24.1582-46.1088C23.4047-46.1088 22.838-45.5426 22.838-44.8509C22.838-44.2207 23.4047-43.6541 24.1582-43.6541ZM37.7768-30.2649C38.5308-30.2649 39.0356-30.7697 39.0356-31.4613C39.0356-32.153 38.5308-32.6573 37.7768-32.6573L24.1582-32.6573C23.4047-32.6573 22.838-32.153 22.838-31.4613C22.838-30.7697 23.4047-30.2649 24.1582-30.2649Z"/>
  </g>
  <g id="Black-S" transform="matrix(1 0 0 1 2877.35 696)">
   <path d="M25 2.92969L87.1094 2.92969C96.6797 2.92969 102.344-2.73438 102.344-12.3047L102.344-58.1055C102.344-67.6758 96.6797-73.3398 87.1094-73.3398L25-73.3398C15.4297-73.3398 9.76562-67.6758 9.76562-58.1055L9.76562-12.3047C9.76562-2.73438 15.4297 2.92969 25 2.92969ZM27.2461-11.2305C25-11.2305 23.9258-12.1094 23.9258-14.5508L23.9258-55.8594C23.9258-58.3008 25-59.1797 27.2461-59.1797L84.8633-59.1797C87.1094-59.1797 88.1836-58.3008 88.1836-55.8594L88.1836-14.5508C88.1836-12.1094 87.1094-11.2305 84.8633-11.2305ZM46.4844-9.91211L59.1797-9.91211L59.1797-61.084L46.4844-61.084ZM38.2812-46.0938C40.625-46.0938 42.4316-47.8516 42.4316-49.9512C42.4316-52.0508 40.625-53.8574 38.2812-53.8574L32.1289-53.8574C29.7852-53.8574 27.9785-52.0508 27.9785-49.9512C27.9785-47.8516 29.7852-46.0938 32.1289-46.0938ZM38.2812-34.1309C40.625-34.1309 42.4316-35.8887 42.4316-37.9883C42.4316-40.0879 40.625-41.8457 38.2812-41.8457L32.1289-41.8457C29.7852-41.8457 27.9785-40.0879 27.9785-37.9883C27.9785-35.8887 29.7852-34.1309 32.1289-34.1309ZM38.2812-22.1191C40.625-22.1191 42.4316-23.9258 42.4316-26.0254C42.4316-28.125 40.625-29.8828 38.2812-29.8828L32.1289-29.8828C29.7852-29.8828 27.9785-28.125 27.9785-26.0254C27.9785-23.9258 29.7852-22.1191 32.1289-22.1191Z"/>
  </g>
  <g id="Heavy-S" transform="matrix(1 0 0 1 2580.87 696)">
   <path d="M24.3431 2.33042L87.2938 2.33042C96.576 2.33042 101.871-2.96486 101.871-12.2125L101.871-58.1977C101.871-67.4453 96.576-72.7406 87.2938-72.7406L24.3431-72.7406C15.0724-72.7406 9.76562-67.4453 9.76562-58.1977L9.76562-12.2125C9.76562-2.96486 15.0724 2.33042 24.3431 2.33042ZM26.0821-10.1587C23.5364-10.1587 22.2432-11.2681 22.2432-14.0091L22.2432-56.401C22.2432-59.1305 23.5364-60.2515 26.0821-60.2515L85.5547-60.2515C88.1005-60.2515 89.3937-59.1305 89.3937-56.401L89.3937-14.0091C89.3937-11.2681 88.1005-10.1587 85.5547-10.1587ZM44.7903-8.82881L56.1142-8.82881L56.1142-61.9944L44.7903-61.9944ZM36.7831-46.912C38.8848-46.912 40.5301-48.5315 40.5301-50.4352C40.5301-52.3389 38.8848-53.9727 36.7831-53.9727L30.2735-53.9727C28.1833-53.9727 26.538-52.3389 26.538-50.4352C26.538-48.5315 28.1833-46.912 30.2735-46.912ZM36.7831-35.4677C38.8848-35.4677 40.5301-37.0757 40.5301-38.9909C40.5301-40.8946 38.8848-42.4911 36.7831-42.4911L30.2735-42.4911C28.1833-42.4911 26.538-40.8946 26.538-38.9909C26.538-37.0757 28.1833-35.4677 30.2735-35.4677ZM36.7831-23.9861C38.8848-23.9861 40.5301-25.6314 40.5301-27.5351C40.5301-29.4388 38.8848-31.0353 36.7831-31.0353L30.2735-31.0353C28.1833-31.0353 26.538-29.4388 26.538-27.5351C26.538-25.6314 28.1833-23.9861 30.2735-23.9861Z"/>
  </g>
  <g id="Bold-S" transform="matrix(1 0 0 1 2284.42 696)">
   <path d="M23.6084 1.66016L87.5 1.66016C96.46 1.66016 101.343-3.22266 101.343-12.1094L101.343-58.3008C101.343-67.1875 96.46-72.0703 87.5-72.0703L23.6084-72.0703C14.6729-72.0703 9.76562-67.1875 9.76562-58.3008L9.76562-12.1094C9.76562-3.22266 14.6729 1.66016 23.6084 1.66016ZM24.7803-8.95996C21.8994-8.95996 20.3613-10.3271 20.3613-13.4033L20.3613-57.0068C20.3613-60.0586 21.8994-61.4502 24.7803-61.4502L86.3281-61.4502C89.209-61.4502 90.7471-60.0586 90.7471-57.0068L90.7471-13.4033C90.7471-10.3271 89.209-8.95996 86.3281-8.95996ZM42.8955-7.61719L52.6855-7.61719L52.6855-63.0127L42.8955-63.0127ZM35.1074-47.8271C36.9385-47.8271 38.4033-49.292 38.4033-50.9766C38.4033-52.6611 36.9385-54.1016 35.1074-54.1016L28.1982-54.1016C26.3916-54.1016 24.9268-52.6611 24.9268-50.9766C24.9268-49.292 26.3916-47.8271 28.1982-47.8271ZM35.1074-36.9629C36.9385-36.9629 38.4033-38.4033 38.4033-40.1123C38.4033-41.7969 36.9385-43.2129 35.1074-43.2129L28.1982-43.2129C26.3916-43.2129 24.9268-41.7969 24.9268-40.1123C24.9268-38.4033 26.3916-36.9629 28.1982-36.9629ZM35.1074-26.0742C36.9385-26.0742 38.4033-27.5391 38.4033-29.2236C38.4033-30.9082 36.9385-32.3242 35.1074-32.3242L28.1982-32.3242C26.3916-32.3242 24.9268-30.9082 24.9268-29.2236C24.9268-27.5391 26.3916-26.0742 28.1982-26.0742Z"/>
  </g>
  <g id="Semibold-S" transform="matrix(1 0 0 1 1987.89 696)">
   <path d="M23.1019 1.19805L87.6422 1.19805C96.38 1.19805 100.978-3.40039 100.978-12.0383L100.978-58.3719C100.978-67.0098 96.38-71.6082 87.6422-71.6082L23.1019-71.6082C14.3974-71.6082 9.76562-67.0098 9.76562-58.3719L9.76562-12.0383C9.76562-3.40039 14.3974 1.19805 23.1019 1.19805ZM23.8827-8.1335C20.7708-8.1335 19.0639-9.67842 19.0639-12.9856L19.0639-57.4245C19.0639-60.6984 20.7708-62.2767 23.8827-62.2767L86.8613-62.2767C89.9732-62.2767 91.6802-60.6984 91.6802-57.4245L91.6802-12.9856C91.6802-9.67842 89.9732-8.1335 86.8613-8.1335ZM41.5892-6.78184L50.3217-6.78184L50.3217-63.7147L41.5892-63.7147ZM33.9521-48.4581C35.5966-48.4581 36.937-49.8163 36.937-51.3498C36.937-52.8833 35.5966-54.1904 33.9521-54.1904L26.7675-54.1904C25.1563-54.1904 23.8159-52.8833 23.8159-51.3498C23.8159-49.8163 25.1563-48.4581 26.7675-48.4581ZM33.9521-37.9937C35.5966-37.9937 36.937-39.3187 36.937-40.8854C36.937-42.4189 35.5966-43.7105 33.9521-43.7105L26.7675-43.7105C25.1563-43.7105 23.8159-42.4189 23.8159-40.8854C23.8159-39.3187 25.1563-37.9937 26.7675-37.9937ZM33.9521-27.5139C35.5966-27.5139 36.937-28.8543 36.937-30.3878C36.937-31.9213 35.5966-33.2129 33.9521-33.2129L26.7675-33.2129C25.1563-33.2129 23.8159-31.9213 23.8159-30.3878C23.8159-28.8543 25.1563-27.5139 26.7675-27.5139Z"/>
  </g>
  <g id="Medium-S" transform="matrix(1 0 0 1 1691.32 696)">
   <path d="M22.7178 0.847656L87.75 0.847656C96.3193 0.847656 100.702-3.53516 100.702-11.9844L100.702-58.4258C100.702-66.875 96.3193-71.2578 87.75-71.2578L22.7178-71.2578C14.1885-71.2578 9.76562-66.875 9.76562-58.4258L9.76562-11.9844C9.76562-3.53516 14.1885 0.847656 22.7178 0.847656ZM23.2021-7.50684C19.915-7.50684 18.0801-9.18652 18.0801-12.6689L18.0801-57.7412C18.0801-61.1836 19.915-62.9033 23.2021-62.9033L87.2656-62.9033C90.5527-62.9033 92.3877-61.1836 92.3877-57.7412L92.3877-12.6689C92.3877-9.18652 90.5527-7.50684 87.2656-7.50684ZM40.5986-6.14844L48.5293-6.14844L48.5293-64.2471L40.5986-64.2471ZM33.0762-48.9365C34.5791-48.9365 35.8252-50.2139 35.8252-51.6328C35.8252-53.0518 34.5791-54.2578 33.0762-54.2578L25.6826-54.2578C24.2197-54.2578 22.9736-53.0518 22.9736-51.6328C22.9736-50.2139 24.2197-48.9365 25.6826-48.9365ZM33.0762-38.7754C34.5791-38.7754 35.8252-40.0127 35.8252-41.4717C35.8252-42.8906 34.5791-44.0879 33.0762-44.0879L25.6826-44.0879C24.2197-44.0879 22.9736-42.8906 22.9736-41.4717C22.9736-40.0127 24.2197-38.7754 25.6826-38.7754ZM33.0762-28.6055C34.5791-28.6055 35.8252-29.8516 35.8252-31.2705C35.8252-32.6895 34.5791-33.8867 33.0762-33.8867L25.6826-33.8867C24.2197-33.8867 22.9736-32.6895 22.9736-31.2705C22.9736-29.8516 24.2197-28.6055 25.6826-28.6055Z"/>
  </g>
  <g id="Regular-S" transform="matrix(1 0 0 1 1394.79 696)">
   <path d="M22.2168 0.390625L87.8906 0.390625C96.2402 0.390625 100.342-3.71094 100.342-11.9141L100.342-58.4961C100.342-66.6992 96.2402-70.8008 87.8906-70.8008L22.2168-70.8008C13.916-70.8008 9.76562-66.6992 9.76562-58.4961L9.76562-11.9141C9.76562-3.71094 13.916 0.390625 22.2168 0.390625ZM22.3145-6.68945C18.7988-6.68945 16.7969-8.54492 16.7969-12.2559L16.7969-58.1543C16.7969-61.8164 18.7988-63.7207 22.3145-63.7207L87.793-63.7207C91.3086-63.7207 93.3105-61.8164 93.3105-58.1543L93.3105-12.2559C93.3105-8.54492 91.3086-6.68945 87.793-6.68945ZM39.3066-5.32227L46.1914-5.32227L46.1914-64.9414L39.3066-64.9414ZM31.9336-49.5605C33.252-49.5605 34.375-50.7324 34.375-52.002C34.375-53.2715 33.252-54.3457 31.9336-54.3457L24.2676-54.3457C22.998-54.3457 21.875-53.2715 21.875-52.002C21.875-50.7324 22.998-49.5605 24.2676-49.5605ZM31.9336-39.7949C33.252-39.7949 34.375-40.918 34.375-42.2363C34.375-43.5059 33.252-44.5801 31.9336-44.5801L24.2676-44.5801C22.998-44.5801 21.875-43.5059 21.875-42.2363C21.875-40.918 22.998-39.7949 24.2676-39.7949ZM31.9336-30.0293C33.252-30.0293 34.375-31.1523 34.375-32.4219C34.375-33.6914 33.252-34.7656 31.9336-34.7656L24.2676-34.7656C22.998-34.7656 21.875-33.6914 21.875-32.4219C21.875-31.1523 22.998-30.0293 24.2676-30.0293Z"/>
  </g>
  <g id="Light-S" transform="matrix(1 0 0 1 1098.43 696)">
   <path d="M21.3994-0.260249L88.0117-0.260249C95.7559-0.260249 99.6455-4.18017 99.6455-11.793L99.6455-58.5869C99.6455-66.1997 95.7559-70.1196 88.0117-70.1196L21.3994-70.1196C13.689-70.1196 9.76562-66.23 9.76562-58.5869L9.76562-11.793C9.76562-4.1499 13.689-0.260249 21.3994-0.260249ZM21.4971-5.72071C17.4214-5.72071 15.1924-7.84864 15.1924-12.0591L15.1924-58.3208C15.1924-62.4976 17.4214-64.6592 21.4971-64.6592L87.9141-64.6592C91.9292-64.6592 94.2187-62.4976 94.2187-58.3208L94.2187-12.0591C94.2187-7.84864 91.9292-5.72071 87.9141-5.72071ZM38.5498-4.64112L43.8755-4.64112L43.8755-65.7891L38.5498-65.7891ZM31.207-50.4385C32.2983-50.4385 33.1943-51.3833 33.1943-52.4258C33.1943-53.4531 32.2983-54.3306 31.207-54.3306L22.6026-54.3306C21.5449-54.3306 20.6338-53.4531 20.6338-52.4258C20.6338-51.3833 21.5449-50.4385 22.6026-50.4385ZM31.207-40.4307C32.2983-40.4307 33.1943-41.3418 33.1943-42.4028C33.1943-43.4453 32.2983-44.3228 31.207-44.3228L22.6026-44.3228C21.5449-44.3228 20.6338-43.4453 20.6338-42.4028C20.6338-41.3418 21.5449-40.4307 22.6026-40.4307ZM31.207-30.438C32.2983-30.438 33.1943-31.334 33.1943-32.3765C33.1943-33.4189 32.2983-34.2813 31.207-34.2813L22.6026-34.2813C21.5449-34.2813 20.6338-33.4189 20.6338-32.3765C20.6338-31.334 21.5449-30.438 22.6026-30.438Z"/>
  </g>
  <g id="Thin-S" transform="matrix(1 0 0 1 802.177 696)">
   <path d="M20.3184-1.12108L88.1719-1.12108C95.1152-1.12108 98.7246-4.80077 98.7246-11.6328L98.7246-58.707C98.7246-65.5391 95.1152-69.2188 88.1719-69.2188L20.3184-69.2188C13.3887-69.2188 9.76562-65.6094 9.76562-58.707L9.76562-11.6328C9.76562-4.73046 13.3887-1.12108 20.3184-1.12108ZM20.416-4.43947C15.5996-4.43947 13.0703-6.92775 13.0703-11.7988L13.0703-58.541C13.0703-63.3984 15.5996-65.9004 20.416-65.9004L88.0742-65.9004C92.75-65.9004 95.4199-63.3984 95.4199-58.541L95.4199-11.7988C95.4199-6.92775 92.75-4.43947 88.0742-4.43947ZM37.5488-3.74025L40.8125-3.74025L40.8125-66.9101L37.5488-66.9101ZM30.2461-51.5996C31.0371-51.5996 31.6328-52.2441 31.6328-52.9863C31.6328-53.6934 31.0371-54.3105 30.2461-54.3105L20.4004-54.3105C19.6231-54.3105 18.9922-53.6934 18.9922-52.9863C18.9922-52.2441 19.6231-51.5996 20.4004-51.5996ZM30.2461-41.2715C31.0371-41.2715 31.6328-41.9023 31.6328-42.623C31.6328-43.3652 31.0371-43.9824 30.2461-43.9824L20.4004-43.9824C19.6231-43.9824 18.9922-43.3652 18.9922-42.623C18.9922-41.9023 19.6231-41.2715 20.4004-41.2715ZM30.2461-30.9785C31.0371-30.9785 31.6328-31.5742 31.6328-32.3164C31.6328-33.0586 31.0371-33.6406 30.2461-33.6406L20.4004-33.6406C19.6231-33.6406 18.9922-33.0586 18.9922-32.3164C18.9922-31.5742 19.6231-30.9785 20.4004-30.9785Z"/>
  </g>
  <g id="Ultralight-S" transform="matrix(1 0 0 1 505.702 696)">
   <path d="M19.7647-1.562L88.2539-1.562C94.7871-1.562 98.2529-5.11864 98.2529-11.5508L98.2529-58.7686C98.2529-65.2007 94.7871-68.7573 88.2539-68.7573L19.7647-68.7573C13.2349-68.7573 9.76562-65.2915 9.76562-58.7686L9.76562-11.5508C9.76562-5.02782 13.2349-1.562 19.7647-1.562ZM19.8623-3.78323C14.6665-3.78323 11.9834-6.45607 11.9834-11.6655L11.9834-58.6538C11.9834-63.8598 14.6665-66.5361 19.8623-66.5361L88.1562-66.5361C93.1704-66.5361 96.0351-63.8598 96.0351-58.6538L96.0351-11.6655C96.0351-6.45607 93.1704-3.78323 88.1562-3.78323ZM37.0362-3.27882L39.2437-3.27882L39.2437-67.4844L37.0362-67.4844ZM29.7539-52.1943C30.3911-52.1943 30.833-52.685 30.833-53.2734C30.833-53.8164 30.3911-54.3003 29.7539-54.3003L19.2725-54.3003C18.6387-54.3003 18.1514-53.8164 18.1514-53.2734C18.1514-52.685 18.6387-52.1943 19.2725-52.1943ZM29.7539-41.7021C30.3911-41.7021 30.833-42.1894 30.833-42.7358C30.833-43.3242 30.3911-43.8081 29.7539-43.8081L19.2725-43.8081C18.6387-43.8081 18.1514-43.3242 18.1514-42.7358C18.1514-42.1894 18.6387-41.7021 19.2725-41.7021ZM29.7539-31.2554C30.3911-31.2554 30.833-31.6973 30.833-32.2856C30.833-32.874 30.3911-33.3125 29.7539-33.3125L19.2725-33.3125C18.6387-33.3125 18.1514-32.874 18.1514-32.2856C18.1514-31.6973 18.6387-31.2554 19.2725-31.2554Z"/>
  </g>
 </g>
</svg>
