<?xml version="1.0" encoding="UTF-8"?>
<!--Generator: Apple Native CoreSVG 175.5-->
<!DOCTYPE svg
PUBLIC "-//W3C//DTD SVG 1.1//EN"
       "http://www.w3.org/Graphics/SVG/1.1/DTD/svg11.dtd">
<svg version="1.1" xmlns="http://www.w3.org/2000/svg" xmlns:xlink="http://www.w3.org/1999/xlink" width="3300" height="2200">
 <!--glyph: "uni10020A.medium", point size: 100.0, font version: "18.0d12e2", template writer version: "101"-->
 <g id="Notes">
  <rect height="2200" id="artboard" style="fill:white;opacity:1" width="3300" x="0" y="0"/>
  <line style="fill:none;stroke:black;opacity:1;stroke-width:0.5;" x1="263" x2="3036" y1="292" y2="292"/>
  <text style="stroke:none;fill:black;font-family:sans-serif;font-size:13;font-weight:bold;" transform="matrix(1 0 0 1 263 322)">Weight/Scale Variations</text>
  <text style="stroke:none;fill:black;font-family:sans-serif;font-size:13;text-anchor:middle;" transform="matrix(1 0 0 1 559.711 322)">Ultralight</text>
  <text style="stroke:none;fill:black;font-family:sans-serif;font-size:13;text-anchor:middle;" transform="matrix(1 0 0 1 856.422 322)">Thin</text>
  <text style="stroke:none;fill:black;font-family:sans-serif;font-size:13;text-anchor:middle;" transform="matrix(1 0 0 1 1153.13 322)">Light</text>
  <text style="stroke:none;fill:black;font-family:sans-serif;font-size:13;text-anchor:middle;" transform="matrix(1 0 0 1 1449.84 322)">Regular</text>
  <text style="stroke:none;fill:black;font-family:sans-serif;font-size:13;text-anchor:middle;" transform="matrix(1 0 0 1 1746.56 322)">Medium</text>
  <text style="stroke:none;fill:black;font-family:sans-serif;font-size:13;text-anchor:middle;" transform="matrix(1 0 0 1 2043.27 322)">Semibold</text>
  <text style="stroke:none;fill:black;font-family:sans-serif;font-size:13;text-anchor:middle;" transform="matrix(1 0 0 1 2339.98 322)">Bold</text>
  <text style="stroke:none;fill:black;font-family:sans-serif;font-size:13;text-anchor:middle;" transform="matrix(1 0 0 1 2636.69 322)">Heavy</text>
  <text style="stroke:none;fill:black;font-family:sans-serif;font-size:13;text-anchor:middle;" transform="matrix(1 0 0 1 2933.4 322)">Black</text>
  <line style="fill:none;stroke:black;opacity:1;stroke-width:0.5;" x1="263" x2="3036" y1="1903" y2="1903"/>
  <g transform="matrix(1 0 0 1 263 1933)">
   <path d="M9.24805 0.830078C13.5547 0.830078 17.1387-2.74414 17.1387-7.05078C17.1387-11.3574 13.5449-14.9316 9.23828-14.9316C4.94141-14.9316 1.36719-11.3574 1.36719-7.05078C1.36719-2.74414 4.95117 0.830078 9.24805 0.830078ZM9.24805-0.654297C5.70312-0.654297 2.87109-3.49609 2.87109-7.05078C2.87109-10.6055 5.69336-13.4473 9.23828-13.4473C12.793-13.4473 15.6445-10.6055 15.6445-7.05078C15.6445-3.49609 12.8027-0.654297 9.24805-0.654297ZM5.6543-7.05078C5.6543-6.62109 5.95703-6.32812 6.40625-6.32812L8.50586-6.32812L8.50586-4.20898C8.50586-3.76953 8.79883-3.4668 9.22852-3.4668C9.67773-3.4668 9.9707-3.76953 9.9707-4.20898L9.9707-6.32812L12.0898-6.32812C12.5293-6.32812 12.832-6.62109 12.832-7.05078C12.832-7.49023 12.5293-7.79297 12.0898-7.79297L9.9707-7.79297L9.9707-9.90234C9.9707-10.3516 9.67773-10.6543 9.22852-10.6543C8.79883-10.6543 8.50586-10.3516 8.50586-9.90234L8.50586-7.79297L6.40625-7.79297C5.95703-7.79297 5.6543-7.49023 5.6543-7.05078Z"/>
  </g>
  <g transform="matrix(1 0 0 1 281.867 1933)">
   <path d="M11.709 2.91016C17.1582 2.91016 21.6699-1.61133 21.6699-7.05078C21.6699-12.5 17.1484-17.0117 11.6992-17.0117C6.25977-17.0117 1.74805-12.5 1.74805-7.05078C1.74805-1.61133 6.26953 2.91016 11.709 2.91016ZM11.709 1.25C7.09961 1.25 3.41797-2.44141 3.41797-7.05078C3.41797-11.6602 7.08984-15.3516 11.6992-15.3516C16.3086-15.3516 20.0098-11.6602 20.0098-7.05078C20.0098-2.44141 16.3184 1.25 11.709 1.25ZM7.17773-7.05078C7.17773-6.57227 7.50977-6.25 8.00781-6.25L10.8789-6.25L10.8789-3.36914C10.8789-2.88086 11.2109-2.53906 11.6895-2.53906C12.1777-2.53906 12.5195-2.87109 12.5195-3.36914L12.5195-6.25L15.4004-6.25C15.8887-6.25 16.2305-6.57227 16.2305-7.05078C16.2305-7.53906 15.8887-7.88086 15.4004-7.88086L12.5195-7.88086L12.5195-10.752C12.5195-11.25 12.1777-11.5918 11.6895-11.5918C11.2109-11.5918 10.8789-11.25 10.8789-10.752L10.8789-7.88086L8.00781-7.88086C7.50977-7.88086 7.17773-7.53906 7.17773-7.05078Z"/>
  </g>
  <g transform="matrix(1 0 0 1 305.646 1933)">
   <path d="M14.9707 5.66406C21.9336 5.66406 27.6953-0.0976562 27.6953-7.05078C27.6953-14.0137 21.9238-19.7754 14.9609-19.7754C8.00781-19.7754 2.25586-14.0137 2.25586-7.05078C2.25586-0.0976562 8.01758 5.66406 14.9707 5.66406ZM14.9707 3.84766C8.93555 3.84766 4.08203-1.01562 4.08203-7.05078C4.08203-13.0957 8.92578-17.9492 14.9609-17.9492C21.0059-17.9492 25.8691-13.0957 25.8691-7.05078C25.8691-1.01562 21.0156 3.84766 14.9707 3.84766ZM9.19922-7.05078C9.19922-6.5332 9.57031-6.17188 10.1172-6.17188L14.0625-6.17188L14.0625-2.2168C14.0625-1.67969 14.4336-1.29883 14.9512-1.29883C15.4883-1.29883 15.8594-1.66992 15.8594-2.2168L15.8594-6.17188L19.8145-6.17188C20.3516-6.17188 20.7324-6.5332 20.7324-7.05078C20.7324-7.59766 20.3613-7.96875 19.8145-7.96875L15.8594-7.96875L15.8594-11.9141C15.8594-12.4609 15.4883-12.8418 14.9512-12.8418C14.4336-12.8418 14.0625-12.4609 14.0625-11.9141L14.0625-7.96875L10.1172-7.96875C9.57031-7.96875 9.19922-7.59766 9.19922-7.05078Z"/>
  </g>
  <text style="stroke:none;fill:black;font-family:sans-serif;font-size:13;font-weight:bold;" transform="matrix(1 0 0 1 263 1953)">Design Variations</text>
  <text style="stroke:none;fill:black;font-family:sans-serif;font-size:13;" transform="matrix(1 0 0 1 263 1971)">Symbols are supported in up to nine weights and three scales.</text>
  <text style="stroke:none;fill:black;font-family:sans-serif;font-size:13;" transform="matrix(1 0 0 1 263 1989)">For optimal layout with text and other symbols, vertically align</text>
  <text style="stroke:none;fill:black;font-family:sans-serif;font-size:13;" transform="matrix(1 0 0 1 263 2007)">symbols with the adjacent text.</text>
  <line style="fill:none;stroke:#00AEEF;stroke-width:0.5;opacity:1.0;" x1="776" x2="776" y1="1919" y2="1933"/>
  <g transform="matrix(1 0 0 1 776 1933)">
   <path d="M3.31055 0.15625C3.82812 0.15625 4.08203-0.0390625 4.26758-0.585938L5.52734-4.0332L11.2891-4.0332L12.5488-0.585938C12.7344-0.0390625 12.9883 0.15625 13.4961 0.15625C14.0137 0.15625 14.3457-0.15625 14.3457-0.644531C14.3457-0.810547 14.3164-0.966797 14.2383-1.17188L9.6582-13.3691C9.43359-13.9648 9.0332-14.2676 8.4082-14.2676C7.80273-14.2676 7.39258-13.9746 7.17773-13.3789L2.59766-1.16211C2.51953-0.957031 2.49023-0.800781 2.49023-0.634766C2.49023-0.146484 2.80273 0.15625 3.31055 0.15625ZM6.00586-5.51758L8.37891-12.0898L8.42773-12.0898L10.8008-5.51758Z"/>
  </g>
  <line style="fill:none;stroke:#00AEEF;stroke-width:0.5;opacity:1.0;" x1="793.197" x2="793.197" y1="1919" y2="1933"/>
  <text style="stroke:none;fill:black;font-family:sans-serif;font-size:13;font-weight:bold;" transform="matrix(1 0 0 1 776 1953)">Margins</text>
  <text style="stroke:none;fill:black;font-family:sans-serif;font-size:13;" transform="matrix(1 0 0 1 776 1971)">Leading and trailing margins on the left and right side of each symbol</text>
  <text style="stroke:none;fill:black;font-family:sans-serif;font-size:13;" transform="matrix(1 0 0 1 776 1989)">can be adjusted by modifying the x-location of the margin guidelines.</text>
  <text style="stroke:none;fill:black;font-family:sans-serif;font-size:13;" transform="matrix(1 0 0 1 776 2007)">Modifications are automatically applied proportionally to all</text>
  <text style="stroke:none;fill:black;font-family:sans-serif;font-size:13;" transform="matrix(1 0 0 1 776 2025)">scales and weights.</text>
  <g transform="matrix(1 0 0 1 1289 1933)">
   <path d="M2.8418 1.86523L4.54102 3.57422C5.40039 4.44336 6.38672 4.38477 7.31445 3.35938L18.0078-8.42773L17.041-9.4043L6.42578 2.27539C6.07422 2.67578 5.74219 2.77344 5.27344 2.30469L4.10156 1.14258C3.63281 0.683594 3.74023 0.341797 4.14062-0.0195312L15.6152-10.8203L14.6387-11.7871L3.04688-0.898438C2.06055 0.0195312 1.98242 0.996094 2.8418 1.86523ZM9.25781-16.3281C8.83789-15.918 8.80859-15.3418 9.04297-14.9512C9.27734-14.5898 9.73633-14.3555 10.3809-14.5215C11.8457-14.8633 13.3691-14.9219 14.7949-13.9844L14.209-12.5293C13.8672-11.6992 14.043-11.1133 14.5801-10.5664L16.875-8.25195C17.3633-7.76367 17.7734-7.74414 18.3398-7.8418L19.4043-8.03711L20.0684-7.36328L20.0293-6.80664C19.9902-6.30859 20.1172-5.92773 20.6055-5.44922L21.3672-4.70703C21.8457-4.22852 22.4609-4.19922 22.9297-4.66797L25.8398-7.58789C26.3086-8.05664 26.2891-8.65234 25.8105-9.13086L25.0391-9.89258C24.5605-10.3711 24.1895-10.5273 23.7109-10.4883L23.1348-10.4395L22.4902-11.0742L22.7344-12.1973C22.8613-12.7637 22.7051-13.2031 22.1191-13.7891L19.9219-15.9766C16.582-19.2969 12.1484-19.2188 9.25781-16.3281ZM10.752-15.957C13.1836-17.7344 16.4746-17.4316 18.7012-15.2051L21.1328-12.793C21.3672-12.5586 21.4062-12.373 21.3379-12.0312L21.0156-10.5469L22.5195-9.0625L23.5059-9.12109C23.7598-9.13086 23.8379-9.11133 24.0332-8.91602L24.6094-8.33984L22.168-5.89844L21.5918-6.47461C21.3965-6.66992 21.3672-6.74805 21.377-7.01172L21.4453-7.98828L19.9512-9.47266L18.4277-9.21875C18.1055-9.15039 17.959-9.17969 17.7148-9.41406L15.7129-11.416C15.459-11.6504 15.4297-11.8164 15.5859-12.1875L16.4648-14.2773C14.9023-15.7324 12.8711-16.3574 10.8398-15.7617C10.6836-15.7227 10.625-15.8496 10.752-15.957Z"/>
  </g>
  <text style="stroke:none;fill:black;font-family:sans-serif;font-size:13;font-weight:bold;" transform="matrix(1 0 0 1 1289 1953)">Exporting</text>
  <text style="stroke:none;fill:black;font-family:sans-serif;font-size:13;" transform="matrix(1 0 0 1 1289 1971)">Symbols should be outlined when exporting to ensure the</text>
  <text style="stroke:none;fill:black;font-family:sans-serif;font-size:13;" transform="matrix(1 0 0 1 1289 1989)">design is preserved when submitting to Xcode.</text>
  <text id="template-version" style="stroke:none;fill:black;font-family:sans-serif;font-size:13;text-anchor:end;" transform="matrix(1 0 0 1 3036 1933)">Template v.2.0</text>
  <text style="stroke:none;fill:black;font-family:sans-serif;font-size:13;text-anchor:end;" transform="matrix(1 0 0 1 3036 1951)">Requires Xcode 12 or greater</text>
  <text id="descriptive-name" style="stroke:none;fill:black;font-family:sans-serif;font-size:13;text-anchor:end;" transform="matrix(1 0 0 1 3036 1969)">Generated from pencil</text>
  <text style="stroke:none;fill:black;font-family:sans-serif;font-size:13;text-anchor:end;" transform="matrix(1 0 0 1 3036 1987)">Typeset at 100 points</text>
  <text style="stroke:none;fill:black;font-family:sans-serif;font-size:13;" transform="matrix(1 0 0 1 263 726)">Small</text>
  <text style="stroke:none;fill:black;font-family:sans-serif;font-size:13;" transform="matrix(1 0 0 1 263 1156)">Medium</text>
  <text style="stroke:none;fill:black;font-family:sans-serif;font-size:13;" transform="matrix(1 0 0 1 263 1586)">Large</text>
 </g>
 <g id="Guides">
  <g id="H-reference" style="fill:#27AAE1;stroke:none;" transform="matrix(1 0 0 1 339 696)">
   <path d="M0.993654 0L3.63775 0L29.3281-67.1323L30.0303-67.1323L30.0303-70.459L28.1226-70.459ZM11.6885-24.4799L46.9815-24.4799L46.2315-26.7285L12.4385-26.7285ZM55.1196 0L57.7637 0L30.6382-70.459L29.4326-70.459L29.4326-67.1323Z"/>
  </g>
  <line id="Baseline-S" style="fill:none;stroke:#27AAE1;opacity:1;stroke-width:0.5;" x1="263" x2="3036" y1="696" y2="696"/>
  <line id="Capline-S" style="fill:none;stroke:#27AAE1;opacity:1;stroke-width:0.5;" x1="263" x2="3036" y1="625.541" y2="625.541"/>
  <g id="H-reference" style="fill:#27AAE1;stroke:none;" transform="matrix(1 0 0 1 339 1126)">
   <path d="M0.993654 0L3.63775 0L29.3281-67.1323L30.0303-67.1323L30.0303-70.459L28.1226-70.459ZM11.6885-24.4799L46.9815-24.4799L46.2315-26.7285L12.4385-26.7285ZM55.1196 0L57.7637 0L30.6382-70.459L29.4326-70.459L29.4326-67.1323Z"/>
  </g>
  <line id="Baseline-M" style="fill:none;stroke:#27AAE1;opacity:1;stroke-width:0.5;" x1="263" x2="3036" y1="1126" y2="1126"/>
  <line id="Capline-M" style="fill:none;stroke:#27AAE1;opacity:1;stroke-width:0.5;" x1="263" x2="3036" y1="1055.54" y2="1055.54"/>
  <g id="H-reference" style="fill:#27AAE1;stroke:none;" transform="matrix(1 0 0 1 339 1556)">
   <path d="M0.993654 0L3.63775 0L29.3281-67.1323L30.0303-67.1323L30.0303-70.459L28.1226-70.459ZM11.6885-24.4799L46.9815-24.4799L46.2315-26.7285L12.4385-26.7285ZM55.1196 0L57.7637 0L30.6382-70.459L29.4326-70.459L29.4326-67.1323Z"/>
  </g>
  <line id="Baseline-L" style="fill:none;stroke:#27AAE1;opacity:1;stroke-width:0.5;" x1="263" x2="3036" y1="1556" y2="1556"/>
  <line id="Capline-L" style="fill:none;stroke:#27AAE1;opacity:1;stroke-width:0.5;" x1="263" x2="3036" y1="1485.54" y2="1485.54"/>
  <line id="left-margin" style="fill:none;stroke:#00AEEF;stroke-width:0.5;opacity:1.0;" x1="1399.74" x2="1399.74" y1="1030.79" y2="1150.12"/>
  <line id="right-margin" style="fill:none;stroke:#00AEEF;stroke-width:0.5;opacity:1.0;" x1="1499.95" x2="1499.95" y1="1030.79" y2="1150.12"/>
 </g>
 <g id="Symbols">
  <g id="Black-L" transform="matrix(1 0 0 1 2859.14 1556)">
   <path d="M37.1624 17.5163L114.791-60.2071L98.9629-76.0376L21.3331 1.68579L14.752 19.1155C13.5866 22.2305 16.782 25.1367 19.587 24.1089ZM122.562-67.8764L130.915-76.2288C134.941-80.2345 135.1-84.9601 131.299-88.8193L127.731-92.4666C123.933-96.3235 119.086-95.9446 115.064-92.0217L106.689-83.7277Z"/>
  </g>
  <g id="Heavy-L" transform="matrix(1 0 0 1 2564.7 1556)">
   <path d="M35.7638 15.7812L111.469-59.9778L96.8823-74.5761L21.1711 1.18291L14.7201 17.7511C13.6919 20.4636 16.4848 23.0737 18.9843 22.165ZM118.683-67.0813L126.514-74.9063C130.34-78.7075 130.495-83.0921 126.926-86.7054L123.748-89.9583C120.191-93.5604 115.695-93.1997 111.886-89.4902L104.025-81.7098Z"/>
  </g>
  <g id="Bold-L" transform="matrix(1 0 0 1 2270.55 1556)">
   <path d="M34.0199 13.8832L107.887-59.9915L94.8893-73.0162L21.0085 0.858583L14.6816 16.3588C13.8151 18.5942 16.1309 20.8355 18.2538 20.0654ZM114.418-66.4032L121.58-73.5528C125.145-77.0929 125.293-81.0401 122.016-84.3461L119.352-87.0775C116.101-90.3571 112.043-90.0194 108.518-86.5862L101.317-79.4658Z"/>
  </g>
  <g id="Semibold-L" transform="matrix(1 0 0 1 1975.61 1556)">
   <path d="M32.8177 12.5747L105.418-60.0011L93.5154-71.9407L20.8965 0.634995L14.6551 15.3989C13.9 17.3054 15.8869 19.2925 17.7502 18.6179ZM111.477-65.9358L118.179-72.6197C121.564-75.9799 121.706-79.6254 118.631-82.7196L116.321-85.0915C113.282-88.1487 109.526-87.8269 106.196-84.5842L99.4502-77.9188Z"/>
  </g>
  <g id="Medium-L" transform="matrix(1 0 0 1 1680.24 1556)">
   <path d="M31.9061 11.5825L103.546-60.0083L92.4736-71.1253L20.8115 0.465461L14.635 14.6711C13.9644 16.3282 15.7019 18.1225 17.3684 17.5204ZM109.247-65.5813L115.6-71.9122C118.849-75.1359 118.987-78.5527 116.064-81.4863L114.023-83.5856C111.144-86.4742 107.617-86.1645 104.435-83.0661L98.0347-76.7458Z"/>
  </g>
  <g id="Regular-L" transform="matrix(1 0 0 1 1385.27 1556)">
   <path d="M30.7171 10.2884L101.104-60.0177L91.1148-70.0617L20.7007 0.244329L14.6088 13.7217C14.0484 15.0536 15.4606 16.5964 16.8703 16.0888ZM106.338-65.119L112.236-70.9893C115.307-74.035 115.44-77.1536 112.716-79.8777L111.025-81.6214C108.356-84.2902 105.127-83.9961 102.139-81.0861L96.1885-75.2158Z"/>
  </g>
  <g id="Light-L" transform="matrix(1 0 0 1 1088.71 1556)">
   <path d="M29.4384 10.5937L102.058-61.9453L93.5005-70.5961L20.8343 1.94292L14.5897 14.676C14.0866 15.817 15.3079 17.0927 16.4695 16.6232ZM106.853-66.6268L112.16-71.8863C114.963-74.703 115.077-77.4208 112.582-79.9158L111.445-81.087C109.043-83.4886 106.139-83.2136 103.475-80.5708L98.1352-75.3113Z"/>
  </g>
  <g id="Thin-L" transform="matrix(1 0 0 1 792.184 1556)">
   <path d="M27.7472 10.9976L103.32-64.4947L96.6557-71.3029L21.011 4.18944L14.5644 15.9381C14.137 16.8266 15.106 17.7489 15.9395 17.33ZM107.535-68.6209L112.059-73.0727C114.509-75.5865 114.598-77.7742 112.406-79.9663L112-80.3802C109.952-82.4284 107.476-82.1787 105.242-79.8893L100.71-75.4375Z"/>
  </g>
  <g id="Ultralight-L" transform="matrix(1 0 0 1 495.57 1556)">
   <path d="M26.8809 11.2045L103.966-65.8005L98.2718-71.6649L21.1015 5.3401L14.5515 16.5845C14.1629 17.3438 15.0026 18.0851 15.668 17.692ZM107.884-69.6422L112.007-73.6803C114.276-76.039 114.352-77.9552 112.315-79.9922L112.285-80.0182C110.417-81.8854 108.162-81.6486 106.147-79.5402L102.029-75.5021Z"/>
  </g>
  <g id="Black-M" transform="matrix(1 0 0 1 2873.93 1126)">
   <path d="M29.8201 7.16738L91.9174-55.039L78.7821-68.1737L16.6851-5.96735L11.4539 8.17566C10.4408 10.9091 13.2365 13.379 15.6386 12.4855ZM98.3564-61.4101L105.197-68.2514C108.451-71.4997 108.576-75.3994 105.463-78.5697L102.439-81.6568C99.3248-84.8277 95.3121-84.5211 92.0572-81.3346L85.2106-74.5503Z"/>
  </g>
  <g id="Heavy-M" transform="matrix(1 0 0 1 2579.43 1126)">
   <path d="M28.5708 5.4431L88.5823-54.6369L76.5281-66.6957L16.5143-6.61565L11.4244 6.75391C10.5402 9.11142 12.96 11.3165 15.0864 10.5359ZM94.5177-60.4937L100.902-66.8759C103.986-69.9453 104.108-73.5487 101.201-76.4997L98.5064-79.2541C95.6035-82.2005 91.9037-81.9099 88.8271-78.9074L82.4262-72.5688Z"/>
  </g>
  <g id="Bold-M" transform="matrix(1 0 0 1 2285.19 1126)">
   <path d="M27.1733 3.51424L84.8514-54.1872L74.0066-65.0423L16.3233-7.34086L11.3914 5.16347C10.6514 7.10048 12.6508 9.00923 14.4686 8.35498ZM90.2236-59.4685L96.0974-65.3372C98.9901-68.2064 99.1096-71.4785 96.4325-74.1841L94.1075-76.5663C91.4407-79.2617 88.091-78.989 85.2137-76.1924L79.3113-70.3523Z"/>
  </g>
  <g id="Semibold-M" transform="matrix(1 0 0 1 1990.18 1126)">
   <path d="M26.2098 2.1845L82.2794-53.8772L72.2683-63.9025L16.1916-7.84082L11.3687 4.06703C10.7281 5.71414 12.4375 7.41864 14.0427 6.85146ZM87.2633-58.7618L92.785-64.2764C95.5462-67.0077 95.6637-70.0513 93.1454-72.5878L91.075-74.7133C88.5709-77.2356 85.4625-76.9753 82.7227-74.3206L77.1639-68.8242Z"/>
  </g>
  <g id="Medium-M" transform="matrix(1 0 0 1 1694.76 1126)">
   <path d="M25.4793 1.17623L80.3291-53.6421L70.9502-63.0382L16.0918-8.21991L11.3514 3.23567C10.7863 4.66297 12.2759 6.21258 13.7198 5.71143ZM85.0187-58.2259L90.2734-63.4721C92.9349-66.0987 93.0509-68.9691 90.6529-71.3774L88.7756-73.3083C86.3949-75.6994 83.4695-75.4485 80.8339-72.9014L75.5357-67.6655Z"/>
  </g>
  <g id="Regular-M" transform="matrix(1 0 0 1 1399.74 1126)">
   <path d="M24.5265-0.138898L77.7854-53.3355L69.231-61.911L15.9616-8.71438L11.3289 2.15128C10.8621 3.29187 12.065 4.63946 13.2985 4.22443ZM82.0909-57.527L86.9974-62.4229C89.5288-64.9131 89.6429-67.5576 87.4019-69.7985L85.7765-71.4758C83.5566-73.6956 80.8699-73.457 78.3702-71.0502L73.4119-66.1542Z"/>
  </g>
  <g id="Light-M" transform="matrix(1 0 0 1 1103.15 1126)">
   <path d="M23.38 0.134877L78.6409-55.0637L71.3699-62.3901L16.0813-7.1915L11.3118 3.00683C10.8963 3.9763 11.9281 5.08435 12.9392 4.70354ZM82.5529-58.8788L86.929-63.2272C89.2208-65.512 89.3178-67.7971 87.2821-69.8328L86.1529-70.9967C84.1726-72.977 81.7768-72.7554 79.568-70.5882L75.1573-66.2398Z"/>
  </g>
  <g id="Thin-M" transform="matrix(1 0 0 1 806.613 1126)">
   <path d="M21.8638 0.496966L79.7724-57.3494L74.1987-63.0237L16.2397-5.17738L11.2892 4.13836C10.9416 4.88153 11.7471 5.67274 12.464 5.3372ZM83.164-60.6666L86.8385-64.2908C88.8135-66.3041 88.8878-68.114 87.1237-69.878L86.6508-70.363C84.9873-72.0265 82.9762-71.8276 81.1521-69.9772L77.4656-66.3529Z"/>
  </g>
  <g id="Ultralight-M" transform="matrix(1 0 0 1 509.989 1126)">
   <path d="M21.0872 0.682427L80.352-58.5201L75.6476-63.3483L16.3209-4.14576L11.2776 4.71792C10.9648 5.34518 11.6543 5.97412 12.2206 5.66175ZM83.4769-61.5823L86.7921-64.8356C88.6048-66.7098 88.6676-68.2762 87.0426-69.9012L86.9058-70.0384C85.4046-71.5396 83.5906-71.3523 81.9635-69.6642L78.6479-66.4109Z"/>
  </g>
  <g id="Black-S" transform="matrix(1 0 0 1 2886.13 696)">
   <path d="M23.6816-1.46484L73.0957-50.9766L62.5488-61.5234L13.1348-12.0117L8.98438-0.732422C8.1543 1.51367 10.4492 3.51562 12.4023 2.7832ZM78.2715-56.1035L83.7402-61.5723C86.3281-64.1602 86.4258-67.2852 83.9355-69.8242L81.4941-72.3145C79.0039-74.8535 75.7812-74.6094 73.1934-72.0703L67.7246-66.6504Z"/>
  </g>
  <g id="Heavy-S" transform="matrix(1 0 0 1 2591.3 696)">
   <path d="M22.7597-2.97455L70.1339-50.4119L60.3477-60.1981L12.9734-12.7608L8.96133-2.05774C8.23497-0.111278 10.2303 1.69476 11.9759 1.05453ZM74.9294-55.147L80.0755-60.293C82.5481-62.7542 82.6458-65.6717 80.3053-68.0495L78.0829-70.3207C75.7425-72.6984 72.7503-72.4658 70.2777-70.0535L65.1201-64.9448Z"/>
  </g>
  <g id="Bold-S" transform="matrix(1 0 0 1 2296.68 696)">
   <path d="M21.7285-4.66309L66.8213-49.7803L57.8857-58.7158L12.793-13.5986L8.93555-3.54004C8.3252-1.92871 9.98535-0.341797 11.499-0.878906ZM71.1914-54.0771L75.9766-58.8623C78.3203-61.1816 78.418-63.8672 76.2451-66.0645L74.2676-68.0908C72.0947-70.2881 69.3604-70.0684 67.0166-67.7979L62.207-63.0371Z"/>
  </g>
  <g id="Semibold-S" transform="matrix(1 0 0 1 2001.41 696)">
   <path d="M21.0176-5.82725L64.5374-49.3448L56.1884-57.6938L12.6686-14.1763L8.91777-4.56201C8.3874-3.18174 9.8165-1.7459 11.1702-2.21191ZM68.6143-53.3396L73.1506-57.8759C75.4055-60.0975 75.5031-62.623 73.4458-64.6959L71.6371-66.5534C69.5798-68.6263 67.0231-68.4154 64.7683-66.2427L60.1986-61.7219Z"/>
  </g>
  <g id="Medium-S" transform="matrix(1 0 0 1 1705.8 696)">
   <path d="M20.4785-6.70996L62.8057-49.0146L54.9014-56.9189L12.5742-14.6143L8.9043-5.33691C8.43457-4.13184 9.68848-2.81055 10.9209-3.22266ZM66.6602-52.7803L71.0078-57.1279C73.1953-59.2754 73.293-61.6797 71.3232-63.6582L69.6426-65.3877C67.6729-67.3662 65.251-67.1621 63.0635-65.0635L58.6758-60.7246Z"/>
  </g>
  <g id="Regular-S" transform="matrix(1 0 0 1 1410.51 696)">
   <path d="M19.7754-7.86133L60.5469-48.584L53.2227-55.9082L12.4512-15.1855L8.88672-6.34766C8.49609-5.37109 9.52148-4.19922 10.5957-4.54102ZM64.1113-52.0508L68.2129-56.1523C70.3125-58.2031 70.4102-60.4492 68.5547-62.3047L67.041-63.8672C65.1855-65.7227 62.9395-65.5273 60.8398-63.5254L56.6895-59.4238Z"/>
  </g>
  <g id="Light-S" transform="matrix(1 0 0 1 1113.92 696)">
   <path d="M18.7612-7.61914L61.3037-50.1128L55.1147-56.332L12.5571-13.8384L8.87158-5.59083C8.52637-4.76563 9.40039-3.80567 10.2778-4.11719ZM64.52-53.2466L68.1523-56.8638C70.04-58.7329 70.1226-60.6611 68.4487-62.335L67.374-63.4434C65.7305-65.0869 63.7417-64.9067 61.8994-63.1167L58.2334-59.4995Z"/>
  </g>
  <g id="Thin-S" transform="matrix(1 0 0 1 817.355 696)">
   <path d="M17.4199-7.29883L62.3047-52.1347L57.6172-56.8926L12.6973-12.0567L8.85156-4.58986C8.56641-3.96485 9.24024-3.28516 9.85743-3.55665ZM65.0605-54.8281L68.0723-57.8047C69.6797-59.4336 69.7422-60.9414 68.3086-62.375L67.8144-62.8828C66.4512-64.2461 64.8027-64.0859 63.3008-62.5762L60.2754-59.5996Z"/>
  </g>
  <g id="Ultralight-S" transform="matrix(1 0 0 1 520.721 696)">
   <path d="M16.7329-7.13477L62.8174-53.1704L58.8989-57.1797L12.769-11.1441L8.84131-4.07717C8.58691-3.5547 9.15821-3.01856 9.6421-3.26954ZM65.3374-55.6382L68.0313-58.2866C69.4951-59.7925 69.5474-61.085 68.2368-62.3955L68.04-62.5957C66.8203-63.8154 65.3462-63.6655 64.0185-62.2993L61.3213-59.6509Z"/>
  </g>
 </g>
</svg>
